G04 #@! TF.GenerationSoftware,KiCad,Pcbnew,(5.1.9)-1*
G04 #@! TF.CreationDate,2024-11-21T13:27:50+09:00*
G04 #@! TF.ProjectId,SD_dongle,53445f64-6f6e-4676-9c65-2e6b69636164,rev?*
G04 #@! TF.SameCoordinates,PX1997c20PYbac5f70*
G04 #@! TF.FileFunction,Legend,Top*
G04 #@! TF.FilePolarity,Positive*
%FSLAX46Y46*%
G04 Gerber Fmt 4.6, Leading zero omitted, Abs format (unit mm)*
G04 Created by KiCad (PCBNEW (5.1.9)-1) date 2024-11-21 13:27:50*
%MOMM*%
%LPD*%
G01*
G04 APERTURE LIST*
%ADD10C,0.400000*%
%ADD11C,0.150000*%
%ADD12C,0.120000*%
G04 APERTURE END LIST*
D10*
X35011904Y8404762D02*
X35130952Y8690477D01*
X35130952Y9166667D01*
X35011904Y9357143D01*
X34892857Y9452381D01*
X34654761Y9547620D01*
X34416666Y9547620D01*
X34178571Y9452381D01*
X34059523Y9357143D01*
X33940476Y9166667D01*
X33821428Y8785715D01*
X33702380Y8595239D01*
X33583333Y8500000D01*
X33345238Y8404762D01*
X33107142Y8404762D01*
X32869047Y8500000D01*
X32750000Y8595239D01*
X32630952Y8785715D01*
X32630952Y9261905D01*
X32750000Y9547620D01*
X35130952Y10404762D02*
X32630952Y10404762D01*
X32630952Y10880953D01*
X32750000Y11166667D01*
X32988095Y11357143D01*
X33226190Y11452381D01*
X33702380Y11547620D01*
X34059523Y11547620D01*
X34535714Y11452381D01*
X34773809Y11357143D01*
X35011904Y11166667D01*
X35130952Y10880953D01*
X35130952Y10404762D01*
X35369047Y11928572D02*
X35369047Y13452381D01*
X35130952Y14785715D02*
X32630952Y14785715D01*
X35011904Y14785715D02*
X35130952Y14595239D01*
X35130952Y14214286D01*
X35011904Y14023810D01*
X34892857Y13928572D01*
X34654761Y13833334D01*
X33940476Y13833334D01*
X33702380Y13928572D01*
X33583333Y14023810D01*
X33464285Y14214286D01*
X33464285Y14595239D01*
X33583333Y14785715D01*
X35130952Y16023810D02*
X35011904Y15833334D01*
X34892857Y15738096D01*
X34654761Y15642858D01*
X33940476Y15642858D01*
X33702380Y15738096D01*
X33583333Y15833334D01*
X33464285Y16023810D01*
X33464285Y16309524D01*
X33583333Y16500000D01*
X33702380Y16595239D01*
X33940476Y16690477D01*
X34654761Y16690477D01*
X34892857Y16595239D01*
X35011904Y16500000D01*
X35130952Y16309524D01*
X35130952Y16023810D01*
X33464285Y17547620D02*
X35130952Y17547620D01*
X33702380Y17547620D02*
X33583333Y17642858D01*
X33464285Y17833334D01*
X33464285Y18119048D01*
X33583333Y18309524D01*
X33821428Y18404762D01*
X35130952Y18404762D01*
X33464285Y20214286D02*
X35488095Y20214286D01*
X35726190Y20119048D01*
X35845238Y20023810D01*
X35964285Y19833334D01*
X35964285Y19547620D01*
X35845238Y19357143D01*
X35011904Y20214286D02*
X35130952Y20023810D01*
X35130952Y19642858D01*
X35011904Y19452381D01*
X34892857Y19357143D01*
X34654761Y19261905D01*
X33940476Y19261905D01*
X33702380Y19357143D01*
X33583333Y19452381D01*
X33464285Y19642858D01*
X33464285Y20023810D01*
X33583333Y20214286D01*
X35130952Y21452381D02*
X35011904Y21261905D01*
X34773809Y21166667D01*
X32630952Y21166667D01*
X35011904Y22976191D02*
X35130952Y22785715D01*
X35130952Y22404762D01*
X35011904Y22214286D01*
X34773809Y22119048D01*
X33821428Y22119048D01*
X33583333Y22214286D01*
X33464285Y22404762D01*
X33464285Y22785715D01*
X33583333Y22976191D01*
X33821428Y23071429D01*
X34059523Y23071429D01*
X34297619Y22119048D01*
X35130952Y26595239D02*
X33940476Y25928572D01*
X35130952Y25452381D02*
X32630952Y25452381D01*
X32630952Y26214286D01*
X32750000Y26404762D01*
X32869047Y26500000D01*
X33107142Y26595239D01*
X33464285Y26595239D01*
X33702380Y26500000D01*
X33821428Y26404762D01*
X33940476Y26214286D01*
X33940476Y25452381D01*
X35011904Y28214286D02*
X35130952Y28023810D01*
X35130952Y27642858D01*
X35011904Y27452381D01*
X34773809Y27357143D01*
X33821428Y27357143D01*
X33583333Y27452381D01*
X33464285Y27642858D01*
X33464285Y28023810D01*
X33583333Y28214286D01*
X33821428Y28309524D01*
X34059523Y28309524D01*
X34297619Y27357143D01*
X33464285Y28976191D02*
X35130952Y29452381D01*
X33464285Y29928572D01*
X35130952Y31738096D02*
X35130952Y30595239D01*
X35130952Y31166667D02*
X32630952Y31166667D01*
X32988095Y30976191D01*
X33226190Y30785715D01*
X33345238Y30595239D01*
X34892857Y32595239D02*
X35011904Y32690477D01*
X35130952Y32595239D01*
X35011904Y32500000D01*
X34892857Y32595239D01*
X35130952Y32595239D01*
X32630952Y33928572D02*
X32630952Y34119048D01*
X32750000Y34309524D01*
X32869047Y34404762D01*
X33107142Y34500000D01*
X33583333Y34595239D01*
X34178571Y34595239D01*
X34654761Y34500000D01*
X34892857Y34404762D01*
X35011904Y34309524D01*
X35130952Y34119048D01*
X35130952Y33928572D01*
X35011904Y33738096D01*
X34892857Y33642858D01*
X34654761Y33547620D01*
X34178571Y33452381D01*
X33583333Y33452381D01*
X33107142Y33547620D01*
X32869047Y33642858D01*
X32750000Y33738096D01*
X32630952Y33928572D01*
D11*
X34166666Y46380953D02*
X34166666Y46857143D01*
X34452380Y46285715D02*
X33452380Y46619048D01*
X34452380Y46952381D01*
X34452380Y47285715D02*
X33785714Y47285715D01*
X33976190Y47285715D02*
X33880952Y47333334D01*
X33833333Y47380953D01*
X33785714Y47476191D01*
X33785714Y47571429D01*
X34452380Y48333334D02*
X33452380Y48333334D01*
X34404761Y48333334D02*
X34452380Y48238096D01*
X34452380Y48047620D01*
X34404761Y47952381D01*
X34357142Y47904762D01*
X34261904Y47857143D01*
X33976190Y47857143D01*
X33880952Y47904762D01*
X33833333Y47952381D01*
X33785714Y48047620D01*
X33785714Y48238096D01*
X33833333Y48333334D01*
X33785714Y49238096D02*
X34452380Y49238096D01*
X33785714Y48809524D02*
X34309523Y48809524D01*
X34404761Y48857143D01*
X34452380Y48952381D01*
X34452380Y49095239D01*
X34404761Y49190477D01*
X34357142Y49238096D01*
X34452380Y49714286D02*
X33785714Y49714286D01*
X33452380Y49714286D02*
X33500000Y49666667D01*
X33547619Y49714286D01*
X33500000Y49761905D01*
X33452380Y49714286D01*
X33547619Y49714286D01*
X33785714Y50190477D02*
X34452380Y50190477D01*
X33880952Y50190477D02*
X33833333Y50238096D01*
X33785714Y50333334D01*
X33785714Y50476191D01*
X33833333Y50571429D01*
X33928571Y50619048D01*
X34452380Y50619048D01*
X34452380Y51238096D02*
X34404761Y51142858D01*
X34357142Y51095239D01*
X34261904Y51047620D01*
X33976190Y51047620D01*
X33880952Y51095239D01*
X33833333Y51142858D01*
X33785714Y51238096D01*
X33785714Y51380953D01*
X33833333Y51476191D01*
X33880952Y51523810D01*
X33976190Y51571429D01*
X34261904Y51571429D01*
X34357142Y51523810D01*
X34404761Y51476191D01*
X34452380Y51380953D01*
X34452380Y51238096D01*
X34452380Y52761905D02*
X33452380Y52761905D01*
X33452380Y53142858D01*
X33500000Y53238096D01*
X33547619Y53285715D01*
X33642857Y53333334D01*
X33785714Y53333334D01*
X33880952Y53285715D01*
X33928571Y53238096D01*
X33976190Y53142858D01*
X33976190Y52761905D01*
X34452380Y53761905D02*
X33785714Y53761905D01*
X33976190Y53761905D02*
X33880952Y53809524D01*
X33833333Y53857143D01*
X33785714Y53952381D01*
X33785714Y54047620D01*
X34452380Y54523810D02*
X34404761Y54428572D01*
X34357142Y54380953D01*
X34261904Y54333334D01*
X33976190Y54333334D01*
X33880952Y54380953D01*
X33833333Y54428572D01*
X33785714Y54523810D01*
X33785714Y54666667D01*
X33833333Y54761905D01*
X33880952Y54809524D01*
X33976190Y54857143D01*
X34261904Y54857143D01*
X34357142Y54809524D01*
X34404761Y54761905D01*
X34452380Y54666667D01*
X34452380Y54523810D01*
X34452380Y56047620D02*
X33452380Y56047620D01*
X34166666Y56380953D01*
X33452380Y56714286D01*
X34452380Y56714286D01*
X34452380Y57190477D02*
X33785714Y57190477D01*
X33452380Y57190477D02*
X33500000Y57142858D01*
X33547619Y57190477D01*
X33500000Y57238096D01*
X33452380Y57190477D01*
X33547619Y57190477D01*
X33785714Y57666667D02*
X34452380Y57666667D01*
X33880952Y57666667D02*
X33833333Y57714286D01*
X33785714Y57809524D01*
X33785714Y57952381D01*
X33833333Y58047620D01*
X33928571Y58095239D01*
X34452380Y58095239D01*
X34452380Y58571429D02*
X33785714Y58571429D01*
X33452380Y58571429D02*
X33500000Y58523810D01*
X33547619Y58571429D01*
X33500000Y58619048D01*
X33452380Y58571429D01*
X33547619Y58571429D01*
D12*
X30430000Y32180000D02*
X6730000Y32180000D01*
X30430000Y380000D02*
X30430000Y32180000D01*
X6730000Y380000D02*
X30430000Y380000D01*
X6730000Y32180000D02*
X6730000Y380000D01*
X30080000Y31810000D02*
X30080000Y30480000D01*
X28750000Y31810000D02*
X30080000Y31810000D01*
X27480000Y31810000D02*
X27480000Y29150000D01*
X27480000Y29150000D02*
X7100000Y29150000D01*
X27480000Y31810000D02*
X7100000Y31810000D01*
X7100000Y31810000D02*
X7100000Y29150000D01*
X26270000Y38100000D02*
X26270000Y36770000D01*
X26270000Y36770000D02*
X24940000Y36770000D01*
X23670000Y36770000D02*
X10910000Y36770000D01*
X10910000Y39430000D02*
X10910000Y36770000D01*
X23670000Y39430000D02*
X10910000Y39430000D01*
X23670000Y39430000D02*
X23670000Y36770000D01*
X35437000Y43363000D02*
X35437000Y61397000D01*
X2163000Y43363000D02*
X35437000Y43363000D01*
X30230000Y58730000D02*
X2163000Y58730000D01*
X30230000Y58730000D02*
X30230000Y61397000D01*
X2163000Y61397000D02*
X2163000Y43360000D01*
X32770000Y46030000D02*
X2163000Y46030000D01*
X32770000Y46030000D02*
X32770000Y43360000D01*
X35437000Y61397000D02*
X32770000Y61397000D01*
X30230000Y61397000D02*
X2163000Y61397000D01*
X32770000Y58730000D02*
X32770000Y61397000D01*
X30230000Y58730000D02*
X32770000Y58730000D01*
X13000000Y67178675D02*
X13250000Y66745662D01*
X12750000Y66745662D02*
X13000000Y67178675D01*
X13250000Y66745662D02*
X12750000Y66745662D01*
X3055000Y67640000D02*
X3055000Y79980000D01*
X34025000Y67640000D02*
X3055000Y67640000D01*
X34025000Y79980000D02*
X34025000Y67640000D01*
D11*
X4166666Y31047620D02*
X4166666Y30333334D01*
X4119047Y30190477D01*
X4023809Y30095239D01*
X3880952Y30047620D01*
X3785714Y30047620D01*
X4595238Y30952381D02*
X4642857Y31000000D01*
X4738095Y31047620D01*
X4976190Y31047620D01*
X5071428Y31000000D01*
X5119047Y30952381D01*
X5166666Y30857143D01*
X5166666Y30761905D01*
X5119047Y30619048D01*
X4547619Y30047620D01*
X5166666Y30047620D01*
X11328095Y15073334D02*
X11804285Y15073334D01*
X11232857Y14787620D02*
X11566190Y15787620D01*
X11899523Y14787620D01*
X12232857Y15311429D02*
X12566190Y15311429D01*
X12709047Y14787620D02*
X12232857Y14787620D01*
X12232857Y15787620D01*
X12709047Y15787620D01*
X13137619Y15168572D02*
X13899523Y15168572D01*
X14375714Y14787620D02*
X14375714Y15454286D01*
X14375714Y15359048D02*
X14423333Y15406667D01*
X14518571Y15454286D01*
X14661428Y15454286D01*
X14756666Y15406667D01*
X14804285Y15311429D01*
X14804285Y14787620D01*
X14804285Y15311429D02*
X14851904Y15406667D01*
X14947142Y15454286D01*
X15090000Y15454286D01*
X15185238Y15406667D01*
X15232857Y15311429D01*
X15232857Y14787620D01*
X15709047Y14787620D02*
X15709047Y15454286D01*
X15709047Y15787620D02*
X15661428Y15740000D01*
X15709047Y15692381D01*
X15756666Y15740000D01*
X15709047Y15787620D01*
X15709047Y15692381D01*
X16613809Y14835239D02*
X16518571Y14787620D01*
X16328095Y14787620D01*
X16232857Y14835239D01*
X16185238Y14882858D01*
X16137619Y14978096D01*
X16137619Y15263810D01*
X16185238Y15359048D01*
X16232857Y15406667D01*
X16328095Y15454286D01*
X16518571Y15454286D01*
X16613809Y15406667D01*
X17042380Y14787620D02*
X17042380Y15454286D01*
X17042380Y15263810D02*
X17090000Y15359048D01*
X17137619Y15406667D01*
X17232857Y15454286D01*
X17328095Y15454286D01*
X17804285Y14787620D02*
X17709047Y14835239D01*
X17661428Y14882858D01*
X17613809Y14978096D01*
X17613809Y15263810D01*
X17661428Y15359048D01*
X17709047Y15406667D01*
X17804285Y15454286D01*
X17947142Y15454286D01*
X18042380Y15406667D01*
X18090000Y15359048D01*
X18137619Y15263810D01*
X18137619Y14978096D01*
X18090000Y14882858D01*
X18042380Y14835239D01*
X17947142Y14787620D01*
X17804285Y14787620D01*
X18518571Y14835239D02*
X18661428Y14787620D01*
X18899523Y14787620D01*
X18994761Y14835239D01*
X19042380Y14882858D01*
X19090000Y14978096D01*
X19090000Y15073334D01*
X19042380Y15168572D01*
X18994761Y15216191D01*
X18899523Y15263810D01*
X18709047Y15311429D01*
X18613809Y15359048D01*
X18566190Y15406667D01*
X18518571Y15501905D01*
X18518571Y15597143D01*
X18566190Y15692381D01*
X18613809Y15740000D01*
X18709047Y15787620D01*
X18947142Y15787620D01*
X19090000Y15740000D01*
X19518571Y14787620D02*
X19518571Y15787620D01*
X19756666Y15787620D01*
X19899523Y15740000D01*
X19994761Y15644762D01*
X20042380Y15549524D01*
X20090000Y15359048D01*
X20090000Y15216191D01*
X20042380Y15025715D01*
X19994761Y14930477D01*
X19899523Y14835239D01*
X19756666Y14787620D01*
X19518571Y14787620D01*
X20518571Y15168572D02*
X21280476Y15168572D01*
X22232857Y14787620D02*
X21756666Y14787620D01*
X21756666Y15787620D01*
X23042380Y14787620D02*
X22566190Y14787620D01*
X22566190Y15787620D01*
X23947142Y14882858D02*
X23899523Y14835239D01*
X23756666Y14787620D01*
X23661428Y14787620D01*
X23518571Y14835239D01*
X23423333Y14930477D01*
X23375714Y15025715D01*
X23328095Y15216191D01*
X23328095Y15359048D01*
X23375714Y15549524D01*
X23423333Y15644762D01*
X23518571Y15740000D01*
X23661428Y15787620D01*
X23756666Y15787620D01*
X23899523Y15740000D01*
X23947142Y15692381D01*
X24375714Y14787620D02*
X24375714Y15787620D01*
X24947142Y14787620D01*
X24947142Y15787620D01*
X25280476Y15787620D02*
X25613809Y14787620D01*
X25947142Y15787620D01*
X27376666Y38647620D02*
X27376666Y37933334D01*
X27329047Y37790477D01*
X27233809Y37695239D01*
X27090952Y37647620D01*
X26995714Y37647620D01*
X27757619Y38647620D02*
X28376666Y38647620D01*
X28043333Y38266667D01*
X28186190Y38266667D01*
X28281428Y38219048D01*
X28329047Y38171429D01*
X28376666Y38076191D01*
X28376666Y37838096D01*
X28329047Y37742858D01*
X28281428Y37695239D01*
X28186190Y37647620D01*
X27900476Y37647620D01*
X27805238Y37695239D01*
X27757619Y37742858D01*
X36032380Y51618096D02*
X36841904Y51618096D01*
X36937142Y51665715D01*
X36984761Y51713334D01*
X37032380Y51808572D01*
X37032380Y51999048D01*
X36984761Y52094286D01*
X36937142Y52141905D01*
X36841904Y52189524D01*
X36032380Y52189524D01*
X37032380Y53189524D02*
X37032380Y52618096D01*
X37032380Y52903810D02*
X36032380Y52903810D01*
X36175238Y52808572D01*
X36270476Y52713334D01*
X36318095Y52618096D01*
X18206666Y67247620D02*
X18206666Y66533334D01*
X18159047Y66390477D01*
X18063809Y66295239D01*
X17920952Y66247620D01*
X17825714Y66247620D01*
X19206666Y66247620D02*
X18635238Y66247620D01*
X18920952Y66247620D02*
X18920952Y67247620D01*
X18825714Y67104762D01*
X18730476Y67009524D01*
X18635238Y66961905D01*
M02*
