G04 #@! TF.GenerationSoftware,KiCad,Pcbnew,(5.1.9)-1*
G04 #@! TF.CreationDate,2024-11-21T13:27:50+09:00*
G04 #@! TF.ProjectId,SD_dongle,53445f64-6f6e-4676-9c65-2e6b69636164,rev?*
G04 #@! TF.SameCoordinates,PX1997c20PYbac5f70*
G04 #@! TF.FileFunction,Soldermask,Bot*
G04 #@! TF.FilePolarity,Negative*
%FSLAX46Y46*%
G04 Gerber Fmt 4.6, Leading zero omitted, Abs format (unit mm)*
G04 Created by KiCad (PCBNEW (5.1.9)-1) date 2024-11-21 13:27:50*
%MOMM*%
%LPD*%
G01*
G04 APERTURE LIST*
%ADD10R,1.700000X1.700000*%
%ADD11O,1.700000X1.700000*%
%ADD12R,1.600000X1.600000*%
%ADD13O,1.600000X1.600000*%
%ADD14C,1.600000*%
%ADD15C,4.000000*%
G04 APERTURE END LIST*
D10*
X28750000Y30480000D03*
D11*
X26210000Y30480000D03*
X23670000Y30480000D03*
X21130000Y30480000D03*
X18590000Y30480000D03*
X16050000Y30480000D03*
X13510000Y30480000D03*
X10970000Y30480000D03*
X8430000Y30480000D03*
X8430000Y2540000D03*
X8430000Y5080000D03*
X28750000Y2540000D03*
X28750000Y5080000D03*
D10*
X24940000Y38100000D03*
D11*
X22400000Y38100000D03*
X19860000Y38100000D03*
X17320000Y38100000D03*
X14780000Y38100000D03*
X12240000Y38100000D03*
D12*
X31500000Y60000000D03*
D13*
X28960000Y60000000D03*
X26420000Y60000000D03*
X3560000Y44760000D03*
X23880000Y60000000D03*
X6100000Y44760000D03*
X21340000Y60000000D03*
X8640000Y44760000D03*
X18800000Y60000000D03*
X11180000Y44760000D03*
X16260000Y60000000D03*
X13720000Y44760000D03*
X13720000Y60000000D03*
X16260000Y44760000D03*
X11180000Y60000000D03*
X18800000Y44760000D03*
X8640000Y60000000D03*
X21340000Y44760000D03*
X6100000Y60000000D03*
X23880000Y44760000D03*
X3560000Y60000000D03*
X26420000Y44760000D03*
X28960000Y44760000D03*
X31500000Y44760000D03*
X22610000Y47300000D03*
X20070000Y47300000D03*
X12450000Y47300000D03*
X9910000Y47300000D03*
D12*
X13000000Y69500000D03*
D14*
X15770000Y69500000D03*
X18540000Y69500000D03*
X21310000Y69500000D03*
X24080000Y69500000D03*
X14385000Y72340000D03*
X17155000Y72340000D03*
X19925000Y72340000D03*
X22695000Y72340000D03*
D15*
X31040000Y70920000D03*
X6040000Y70920000D03*
M02*
