G04 #@! TF.GenerationSoftware,KiCad,Pcbnew,(5.1.9)-1*
G04 #@! TF.CreationDate,2024-11-21T13:27:50+09:00*
G04 #@! TF.ProjectId,SD_dongle,53445f64-6f6e-4676-9c65-2e6b69636164,rev?*
G04 #@! TF.SameCoordinates,PX1997c20PYbac5f70*
G04 #@! TF.FileFunction,Copper,L1,Top*
G04 #@! TF.FilePolarity,Positive*
%FSLAX46Y46*%
G04 Gerber Fmt 4.6, Leading zero omitted, Abs format (unit mm)*
G04 Created by KiCad (PCBNEW (5.1.9)-1) date 2024-11-21 13:27:50*
%MOMM*%
%LPD*%
G01*
G04 APERTURE LIST*
G04 #@! TA.AperFunction,ComponentPad*
%ADD10R,1.700000X1.700000*%
G04 #@! TD*
G04 #@! TA.AperFunction,ComponentPad*
%ADD11O,1.700000X1.700000*%
G04 #@! TD*
G04 #@! TA.AperFunction,ComponentPad*
%ADD12R,1.600000X1.600000*%
G04 #@! TD*
G04 #@! TA.AperFunction,ComponentPad*
%ADD13O,1.600000X1.600000*%
G04 #@! TD*
G04 #@! TA.AperFunction,ComponentPad*
%ADD14C,1.600000*%
G04 #@! TD*
G04 #@! TA.AperFunction,ComponentPad*
%ADD15C,4.000000*%
G04 #@! TD*
G04 #@! TA.AperFunction,Conductor*
%ADD16C,0.400000*%
G04 #@! TD*
G04 #@! TA.AperFunction,Conductor*
%ADD17C,0.200000*%
G04 #@! TD*
G04 #@! TA.AperFunction,Conductor*
%ADD18C,0.254000*%
G04 #@! TD*
G04 #@! TA.AperFunction,Conductor*
%ADD19C,0.100000*%
G04 #@! TD*
G04 APERTURE END LIST*
D10*
X28750000Y30480000D03*
D11*
X26210000Y30480000D03*
X23670000Y30480000D03*
X21130000Y30480000D03*
X18590000Y30480000D03*
X16050000Y30480000D03*
X13510000Y30480000D03*
X10970000Y30480000D03*
X8430000Y30480000D03*
X8430000Y2540000D03*
X8430000Y5080000D03*
X28750000Y2540000D03*
X28750000Y5080000D03*
D10*
X24940000Y38100000D03*
D11*
X22400000Y38100000D03*
X19860000Y38100000D03*
X17320000Y38100000D03*
X14780000Y38100000D03*
X12240000Y38100000D03*
D12*
X31500000Y60000000D03*
D13*
X28960000Y60000000D03*
X26420000Y60000000D03*
X3560000Y44760000D03*
X23880000Y60000000D03*
X6100000Y44760000D03*
X21340000Y60000000D03*
X8640000Y44760000D03*
X18800000Y60000000D03*
X11180000Y44760000D03*
X16260000Y60000000D03*
X13720000Y44760000D03*
X13720000Y60000000D03*
X16260000Y44760000D03*
X11180000Y60000000D03*
X18800000Y44760000D03*
X8640000Y60000000D03*
X21340000Y44760000D03*
X6100000Y60000000D03*
X23880000Y44760000D03*
X3560000Y60000000D03*
X26420000Y44760000D03*
X28960000Y44760000D03*
X31500000Y44760000D03*
X22610000Y47300000D03*
X20070000Y47300000D03*
X12450000Y47300000D03*
X9910000Y47300000D03*
D12*
X13000000Y69500000D03*
D14*
X15770000Y69500000D03*
X18540000Y69500000D03*
X21310000Y69500000D03*
X24080000Y69500000D03*
X14385000Y72340000D03*
X17155000Y72340000D03*
X19925000Y72340000D03*
X22695000Y72340000D03*
D15*
X31040000Y70920000D03*
X6040000Y70920000D03*
D16*
X25080001Y45960001D02*
X23880000Y44760000D01*
X25080001Y68499999D02*
X25080001Y45960001D01*
X24080000Y69500000D02*
X25080001Y68499999D01*
X23880000Y39580000D02*
X22400000Y38100000D01*
X23880000Y44760000D02*
X23880000Y39580000D01*
D17*
X21130000Y30480000D02*
X21130000Y31630300D01*
X24940000Y38100000D02*
X24940000Y35440300D01*
X24940000Y35440300D02*
X21130000Y31630300D01*
X14780000Y38100000D02*
X14780000Y36949700D01*
X14780000Y36949700D02*
X18590000Y33139700D01*
X18590000Y33139700D02*
X18590000Y30480000D01*
X12240000Y38100000D02*
X12240000Y36949700D01*
X12240000Y36949700D02*
X10970000Y35679700D01*
X10970000Y35679700D02*
X10970000Y30480000D01*
X16260000Y60000000D02*
X16260000Y61100300D01*
X13000000Y69500000D02*
X13000000Y64360300D01*
X13000000Y64360300D02*
X16260000Y61100300D01*
X18800000Y45860300D02*
X17360400Y47299900D01*
X17360400Y47299900D02*
X17360400Y62724500D01*
X17360400Y62724500D02*
X14385000Y65699900D01*
X14385000Y65699900D02*
X14385000Y72340000D01*
X18800000Y44760000D02*
X18800000Y45860300D01*
X17155000Y72340000D02*
X17155000Y66816000D01*
X17155000Y66816000D02*
X20070000Y63901000D01*
X20070000Y63901000D02*
X20070000Y52649100D01*
X20070000Y52649100D02*
X21340000Y51379100D01*
X21340000Y51379100D02*
X21340000Y44760000D01*
D18*
X36840000Y660000D02*
X660000Y660000D01*
X660000Y5226260D01*
X6945000Y5226260D01*
X6945000Y4933740D01*
X7002068Y4646842D01*
X7114010Y4376589D01*
X7276525Y4133368D01*
X7483368Y3926525D01*
X7657760Y3810000D01*
X7483368Y3693475D01*
X7276525Y3486632D01*
X7114010Y3243411D01*
X7002068Y2973158D01*
X6945000Y2686260D01*
X6945000Y2393740D01*
X7002068Y2106842D01*
X7114010Y1836589D01*
X7276525Y1593368D01*
X7483368Y1386525D01*
X7726589Y1224010D01*
X7996842Y1112068D01*
X8283740Y1055000D01*
X8576260Y1055000D01*
X8863158Y1112068D01*
X9133411Y1224010D01*
X9376632Y1386525D01*
X9583475Y1593368D01*
X9745990Y1836589D01*
X9857932Y2106842D01*
X9915000Y2393740D01*
X9915000Y2686260D01*
X9857932Y2973158D01*
X9745990Y3243411D01*
X9583475Y3486632D01*
X9376632Y3693475D01*
X9202240Y3810000D01*
X9376632Y3926525D01*
X9583475Y4133368D01*
X9745990Y4376589D01*
X9857932Y4646842D01*
X9915000Y4933740D01*
X9915000Y5226260D01*
X27265000Y5226260D01*
X27265000Y4933740D01*
X27322068Y4646842D01*
X27434010Y4376589D01*
X27596525Y4133368D01*
X27803368Y3926525D01*
X27977760Y3810000D01*
X27803368Y3693475D01*
X27596525Y3486632D01*
X27434010Y3243411D01*
X27322068Y2973158D01*
X27265000Y2686260D01*
X27265000Y2393740D01*
X27322068Y2106842D01*
X27434010Y1836589D01*
X27596525Y1593368D01*
X27803368Y1386525D01*
X28046589Y1224010D01*
X28316842Y1112068D01*
X28603740Y1055000D01*
X28896260Y1055000D01*
X29183158Y1112068D01*
X29453411Y1224010D01*
X29696632Y1386525D01*
X29903475Y1593368D01*
X30065990Y1836589D01*
X30177932Y2106842D01*
X30235000Y2393740D01*
X30235000Y2686260D01*
X30177932Y2973158D01*
X30065990Y3243411D01*
X29903475Y3486632D01*
X29696632Y3693475D01*
X29522240Y3810000D01*
X29696632Y3926525D01*
X29903475Y4133368D01*
X30065990Y4376589D01*
X30177932Y4646842D01*
X30235000Y4933740D01*
X30235000Y5226260D01*
X30177932Y5513158D01*
X30065990Y5783411D01*
X29903475Y6026632D01*
X29696632Y6233475D01*
X29453411Y6395990D01*
X29183158Y6507932D01*
X28896260Y6565000D01*
X28603740Y6565000D01*
X28316842Y6507932D01*
X28046589Y6395990D01*
X27803368Y6233475D01*
X27596525Y6026632D01*
X27434010Y5783411D01*
X27322068Y5513158D01*
X27265000Y5226260D01*
X9915000Y5226260D01*
X9857932Y5513158D01*
X9745990Y5783411D01*
X9583475Y6026632D01*
X9376632Y6233475D01*
X9133411Y6395990D01*
X8863158Y6507932D01*
X8576260Y6565000D01*
X8283740Y6565000D01*
X7996842Y6507932D01*
X7726589Y6395990D01*
X7483368Y6233475D01*
X7276525Y6026632D01*
X7114010Y5783411D01*
X7002068Y5513158D01*
X6945000Y5226260D01*
X660000Y5226260D01*
X660000Y60141335D01*
X2125000Y60141335D01*
X2125000Y59858665D01*
X2180147Y59581426D01*
X2288320Y59320273D01*
X2445363Y59085241D01*
X2645241Y58885363D01*
X2880273Y58728320D01*
X3141426Y58620147D01*
X3418665Y58565000D01*
X3701335Y58565000D01*
X3978574Y58620147D01*
X4239727Y58728320D01*
X4474759Y58885363D01*
X4674637Y59085241D01*
X4830000Y59317759D01*
X4985363Y59085241D01*
X5185241Y58885363D01*
X5420273Y58728320D01*
X5681426Y58620147D01*
X5958665Y58565000D01*
X6241335Y58565000D01*
X6518574Y58620147D01*
X6779727Y58728320D01*
X7014759Y58885363D01*
X7214637Y59085241D01*
X7370000Y59317759D01*
X7525363Y59085241D01*
X7725241Y58885363D01*
X7960273Y58728320D01*
X8221426Y58620147D01*
X8498665Y58565000D01*
X8781335Y58565000D01*
X9058574Y58620147D01*
X9319727Y58728320D01*
X9554759Y58885363D01*
X9754637Y59085241D01*
X9910000Y59317759D01*
X10065363Y59085241D01*
X10265241Y58885363D01*
X10500273Y58728320D01*
X10761426Y58620147D01*
X11038665Y58565000D01*
X11321335Y58565000D01*
X11598574Y58620147D01*
X11859727Y58728320D01*
X12094759Y58885363D01*
X12294637Y59085241D01*
X12450000Y59317759D01*
X12605363Y59085241D01*
X12805241Y58885363D01*
X13040273Y58728320D01*
X13301426Y58620147D01*
X13578665Y58565000D01*
X13861335Y58565000D01*
X14138574Y58620147D01*
X14399727Y58728320D01*
X14634759Y58885363D01*
X14834637Y59085241D01*
X14990000Y59317759D01*
X15145363Y59085241D01*
X15345241Y58885363D01*
X15580273Y58728320D01*
X15841426Y58620147D01*
X16118665Y58565000D01*
X16401335Y58565000D01*
X16625401Y58609570D01*
X16625400Y47336005D01*
X16621844Y47299900D01*
X16625400Y47263796D01*
X16636035Y47155816D01*
X16678063Y47017268D01*
X16746313Y46889581D01*
X16838162Y46777663D01*
X16866208Y46754646D01*
X17815729Y45805125D01*
X17685363Y45674759D01*
X17530000Y45442241D01*
X17374637Y45674759D01*
X17174759Y45874637D01*
X16939727Y46031680D01*
X16678574Y46139853D01*
X16401335Y46195000D01*
X16118665Y46195000D01*
X15841426Y46139853D01*
X15580273Y46031680D01*
X15345241Y45874637D01*
X15145363Y45674759D01*
X14990000Y45442241D01*
X14834637Y45674759D01*
X14634759Y45874637D01*
X14399727Y46031680D01*
X14138574Y46139853D01*
X13861335Y46195000D01*
X13578665Y46195000D01*
X13301426Y46139853D01*
X13288856Y46134646D01*
X13364759Y46185363D01*
X13564637Y46385241D01*
X13721680Y46620273D01*
X13829853Y46881426D01*
X13885000Y47158665D01*
X13885000Y47441335D01*
X13829853Y47718574D01*
X13721680Y47979727D01*
X13564637Y48214759D01*
X13364759Y48414637D01*
X13129727Y48571680D01*
X12868574Y48679853D01*
X12591335Y48735000D01*
X12308665Y48735000D01*
X12031426Y48679853D01*
X11770273Y48571680D01*
X11535241Y48414637D01*
X11335363Y48214759D01*
X11180000Y47982241D01*
X11024637Y48214759D01*
X10824759Y48414637D01*
X10589727Y48571680D01*
X10328574Y48679853D01*
X10051335Y48735000D01*
X9768665Y48735000D01*
X9491426Y48679853D01*
X9230273Y48571680D01*
X8995241Y48414637D01*
X8795363Y48214759D01*
X8638320Y47979727D01*
X8530147Y47718574D01*
X8475000Y47441335D01*
X8475000Y47158665D01*
X8530147Y46881426D01*
X8638320Y46620273D01*
X8795363Y46385241D01*
X8995241Y46185363D01*
X9071144Y46134646D01*
X9058574Y46139853D01*
X8781335Y46195000D01*
X8498665Y46195000D01*
X8221426Y46139853D01*
X7960273Y46031680D01*
X7725241Y45874637D01*
X7525363Y45674759D01*
X7370000Y45442241D01*
X7214637Y45674759D01*
X7014759Y45874637D01*
X6779727Y46031680D01*
X6518574Y46139853D01*
X6241335Y46195000D01*
X5958665Y46195000D01*
X5681426Y46139853D01*
X5420273Y46031680D01*
X5185241Y45874637D01*
X4985363Y45674759D01*
X4830000Y45442241D01*
X4674637Y45674759D01*
X4474759Y45874637D01*
X4239727Y46031680D01*
X3978574Y46139853D01*
X3701335Y46195000D01*
X3418665Y46195000D01*
X3141426Y46139853D01*
X2880273Y46031680D01*
X2645241Y45874637D01*
X2445363Y45674759D01*
X2288320Y45439727D01*
X2180147Y45178574D01*
X2125000Y44901335D01*
X2125000Y44618665D01*
X2180147Y44341426D01*
X2288320Y44080273D01*
X2445363Y43845241D01*
X2645241Y43645363D01*
X2880273Y43488320D01*
X3141426Y43380147D01*
X3418665Y43325000D01*
X3701335Y43325000D01*
X3978574Y43380147D01*
X4239727Y43488320D01*
X4474759Y43645363D01*
X4674637Y43845241D01*
X4830000Y44077759D01*
X4985363Y43845241D01*
X5185241Y43645363D01*
X5420273Y43488320D01*
X5681426Y43380147D01*
X5958665Y43325000D01*
X6241335Y43325000D01*
X6518574Y43380147D01*
X6779727Y43488320D01*
X7014759Y43645363D01*
X7214637Y43845241D01*
X7370000Y44077759D01*
X7525363Y43845241D01*
X7725241Y43645363D01*
X7960273Y43488320D01*
X8221426Y43380147D01*
X8498665Y43325000D01*
X8781335Y43325000D01*
X9058574Y43380147D01*
X9319727Y43488320D01*
X9554759Y43645363D01*
X9754637Y43845241D01*
X9910000Y44077759D01*
X10065363Y43845241D01*
X10265241Y43645363D01*
X10500273Y43488320D01*
X10761426Y43380147D01*
X11038665Y43325000D01*
X11321335Y43325000D01*
X11598574Y43380147D01*
X11859727Y43488320D01*
X12094759Y43645363D01*
X12294637Y43845241D01*
X12450000Y44077759D01*
X12605363Y43845241D01*
X12805241Y43645363D01*
X13040273Y43488320D01*
X13301426Y43380147D01*
X13578665Y43325000D01*
X13861335Y43325000D01*
X14138574Y43380147D01*
X14399727Y43488320D01*
X14634759Y43645363D01*
X14834637Y43845241D01*
X14990000Y44077759D01*
X15145363Y43845241D01*
X15345241Y43645363D01*
X15580273Y43488320D01*
X15841426Y43380147D01*
X16118665Y43325000D01*
X16401335Y43325000D01*
X16678574Y43380147D01*
X16939727Y43488320D01*
X17174759Y43645363D01*
X17374637Y43845241D01*
X17530000Y44077759D01*
X17685363Y43845241D01*
X17885241Y43645363D01*
X18120273Y43488320D01*
X18381426Y43380147D01*
X18658665Y43325000D01*
X18941335Y43325000D01*
X19218574Y43380147D01*
X19479727Y43488320D01*
X19714759Y43645363D01*
X19914637Y43845241D01*
X20070000Y44077759D01*
X20225363Y43845241D01*
X20425241Y43645363D01*
X20660273Y43488320D01*
X20921426Y43380147D01*
X21198665Y43325000D01*
X21481335Y43325000D01*
X21758574Y43380147D01*
X22019727Y43488320D01*
X22254759Y43645363D01*
X22454637Y43845241D01*
X22610000Y44077759D01*
X22765363Y43845241D01*
X22965241Y43645363D01*
X23045000Y43592070D01*
X23045001Y39925869D01*
X22677940Y39558807D01*
X22546260Y39585000D01*
X22253740Y39585000D01*
X21966842Y39527932D01*
X21696589Y39415990D01*
X21453368Y39253475D01*
X21246525Y39046632D01*
X21130000Y38872240D01*
X21013475Y39046632D01*
X20806632Y39253475D01*
X20563411Y39415990D01*
X20293158Y39527932D01*
X20006260Y39585000D01*
X19713740Y39585000D01*
X19426842Y39527932D01*
X19156589Y39415990D01*
X18913368Y39253475D01*
X18706525Y39046632D01*
X18590000Y38872240D01*
X18473475Y39046632D01*
X18266632Y39253475D01*
X18023411Y39415990D01*
X17753158Y39527932D01*
X17466260Y39585000D01*
X17173740Y39585000D01*
X16886842Y39527932D01*
X16616589Y39415990D01*
X16373368Y39253475D01*
X16166525Y39046632D01*
X16050000Y38872240D01*
X15933475Y39046632D01*
X15726632Y39253475D01*
X15483411Y39415990D01*
X15213158Y39527932D01*
X14926260Y39585000D01*
X14633740Y39585000D01*
X14346842Y39527932D01*
X14076589Y39415990D01*
X13833368Y39253475D01*
X13626525Y39046632D01*
X13510000Y38872240D01*
X13393475Y39046632D01*
X13186632Y39253475D01*
X12943411Y39415990D01*
X12673158Y39527932D01*
X12386260Y39585000D01*
X12093740Y39585000D01*
X11806842Y39527932D01*
X11536589Y39415990D01*
X11293368Y39253475D01*
X11086525Y39046632D01*
X10924010Y38803411D01*
X10812068Y38533158D01*
X10755000Y38246260D01*
X10755000Y37953740D01*
X10812068Y37666842D01*
X10924010Y37396589D01*
X11086525Y37153368D01*
X11245373Y36994520D01*
X10475808Y36224954D01*
X10447762Y36201937D01*
X10355913Y36090019D01*
X10287663Y35962332D01*
X10258384Y35865813D01*
X10245635Y35823785D01*
X10231444Y35679700D01*
X10235000Y35643595D01*
X10235001Y31774883D01*
X10023368Y31633475D01*
X9816525Y31426632D01*
X9700000Y31252240D01*
X9583475Y31426632D01*
X9376632Y31633475D01*
X9133411Y31795990D01*
X8863158Y31907932D01*
X8576260Y31965000D01*
X8283740Y31965000D01*
X7996842Y31907932D01*
X7726589Y31795990D01*
X7483368Y31633475D01*
X7276525Y31426632D01*
X7114010Y31183411D01*
X7002068Y30913158D01*
X6945000Y30626260D01*
X6945000Y30333740D01*
X7002068Y30046842D01*
X7114010Y29776589D01*
X7276525Y29533368D01*
X7483368Y29326525D01*
X7726589Y29164010D01*
X7996842Y29052068D01*
X8283740Y28995000D01*
X8576260Y28995000D01*
X8863158Y29052068D01*
X9133411Y29164010D01*
X9376632Y29326525D01*
X9583475Y29533368D01*
X9700000Y29707760D01*
X9816525Y29533368D01*
X10023368Y29326525D01*
X10266589Y29164010D01*
X10536842Y29052068D01*
X10823740Y28995000D01*
X11116260Y28995000D01*
X11403158Y29052068D01*
X11673411Y29164010D01*
X11916632Y29326525D01*
X12123475Y29533368D01*
X12240000Y29707760D01*
X12356525Y29533368D01*
X12563368Y29326525D01*
X12806589Y29164010D01*
X13076842Y29052068D01*
X13363740Y28995000D01*
X13656260Y28995000D01*
X13943158Y29052068D01*
X14213411Y29164010D01*
X14456632Y29326525D01*
X14663475Y29533368D01*
X14780000Y29707760D01*
X14896525Y29533368D01*
X15103368Y29326525D01*
X15346589Y29164010D01*
X15616842Y29052068D01*
X15903740Y28995000D01*
X16196260Y28995000D01*
X16483158Y29052068D01*
X16753411Y29164010D01*
X16996632Y29326525D01*
X17203475Y29533368D01*
X17320000Y29707760D01*
X17436525Y29533368D01*
X17643368Y29326525D01*
X17886589Y29164010D01*
X18156842Y29052068D01*
X18443740Y28995000D01*
X18736260Y28995000D01*
X19023158Y29052068D01*
X19293411Y29164010D01*
X19536632Y29326525D01*
X19743475Y29533368D01*
X19865195Y29715534D01*
X19934822Y29598645D01*
X20129731Y29382412D01*
X20363080Y29208359D01*
X20625901Y29083175D01*
X20773110Y29038524D01*
X21003000Y29159845D01*
X21003000Y30353000D01*
X20983000Y30353000D01*
X20983000Y30607000D01*
X21003000Y30607000D01*
X21003000Y31800155D01*
X21257000Y31800155D01*
X21257000Y30607000D01*
X21277000Y30607000D01*
X21277000Y30353000D01*
X21257000Y30353000D01*
X21257000Y29159845D01*
X21486890Y29038524D01*
X21634099Y29083175D01*
X21896920Y29208359D01*
X22130269Y29382412D01*
X22325178Y29598645D01*
X22394805Y29715534D01*
X22516525Y29533368D01*
X22723368Y29326525D01*
X22966589Y29164010D01*
X23236842Y29052068D01*
X23523740Y28995000D01*
X23816260Y28995000D01*
X24103158Y29052068D01*
X24373411Y29164010D01*
X24616632Y29326525D01*
X24823475Y29533368D01*
X24940000Y29707760D01*
X25056525Y29533368D01*
X25263368Y29326525D01*
X25506589Y29164010D01*
X25776842Y29052068D01*
X26063740Y28995000D01*
X26356260Y28995000D01*
X26643158Y29052068D01*
X26913411Y29164010D01*
X27156632Y29326525D01*
X27288487Y29458380D01*
X27310498Y29385820D01*
X27369463Y29275506D01*
X27448815Y29178815D01*
X27545506Y29099463D01*
X27655820Y29040498D01*
X27775518Y29004188D01*
X27900000Y28991928D01*
X29600000Y28991928D01*
X29724482Y29004188D01*
X29844180Y29040498D01*
X29954494Y29099463D01*
X30051185Y29178815D01*
X30130537Y29275506D01*
X30189502Y29385820D01*
X30225812Y29505518D01*
X30238072Y29630000D01*
X30238072Y31330000D01*
X30225812Y31454482D01*
X30189502Y31574180D01*
X30130537Y31684494D01*
X30051185Y31781185D01*
X29954494Y31860537D01*
X29844180Y31919502D01*
X29724482Y31955812D01*
X29600000Y31968072D01*
X27900000Y31968072D01*
X27775518Y31955812D01*
X27655820Y31919502D01*
X27545506Y31860537D01*
X27448815Y31781185D01*
X27369463Y31684494D01*
X27310498Y31574180D01*
X27288487Y31501620D01*
X27156632Y31633475D01*
X26913411Y31795990D01*
X26643158Y31907932D01*
X26356260Y31965000D01*
X26063740Y31965000D01*
X25776842Y31907932D01*
X25506589Y31795990D01*
X25263368Y31633475D01*
X25056525Y31426632D01*
X24940000Y31252240D01*
X24823475Y31426632D01*
X24616632Y31633475D01*
X24373411Y31795990D01*
X24103158Y31907932D01*
X23816260Y31965000D01*
X23523740Y31965000D01*
X23236842Y31907932D01*
X22966589Y31795990D01*
X22723368Y31633475D01*
X22516525Y31426632D01*
X22394805Y31244466D01*
X22325178Y31361355D01*
X22130269Y31577588D01*
X21896920Y31751641D01*
X21634099Y31876825D01*
X21486890Y31921476D01*
X21257000Y31800155D01*
X21003000Y31800155D01*
X20773110Y31921476D01*
X20625901Y31876825D01*
X20363080Y31751641D01*
X20129731Y31577588D01*
X19934822Y31361355D01*
X19865195Y31244466D01*
X19743475Y31426632D01*
X19536632Y31633475D01*
X19325000Y31774883D01*
X19325000Y33103595D01*
X19328556Y33139700D01*
X19314365Y33283785D01*
X19272337Y33422334D01*
X19204087Y33550020D01*
X19135253Y33633894D01*
X19135250Y33633897D01*
X19112237Y33661938D01*
X19084197Y33684950D01*
X15774627Y36994520D01*
X15933475Y37153368D01*
X16050000Y37327760D01*
X16166525Y37153368D01*
X16373368Y36946525D01*
X16616589Y36784010D01*
X16886842Y36672068D01*
X17173740Y36615000D01*
X17466260Y36615000D01*
X17753158Y36672068D01*
X18023411Y36784010D01*
X18266632Y36946525D01*
X18473475Y37153368D01*
X18590000Y37327760D01*
X18706525Y37153368D01*
X18913368Y36946525D01*
X19156589Y36784010D01*
X19426842Y36672068D01*
X19713740Y36615000D01*
X20006260Y36615000D01*
X20293158Y36672068D01*
X20563411Y36784010D01*
X20806632Y36946525D01*
X21013475Y37153368D01*
X21130000Y37327760D01*
X21246525Y37153368D01*
X21453368Y36946525D01*
X21696589Y36784010D01*
X21966842Y36672068D01*
X22253740Y36615000D01*
X22546260Y36615000D01*
X22833158Y36672068D01*
X23103411Y36784010D01*
X23346632Y36946525D01*
X23478487Y37078380D01*
X23500498Y37005820D01*
X23559463Y36895506D01*
X23638815Y36798815D01*
X23735506Y36719463D01*
X23845820Y36660498D01*
X23965518Y36624188D01*
X24090000Y36611928D01*
X24654250Y36615000D01*
X24813000Y36773750D01*
X24813000Y37973000D01*
X25067000Y37973000D01*
X25067000Y36773750D01*
X25225750Y36615000D01*
X25790000Y36611928D01*
X25914482Y36624188D01*
X26034180Y36660498D01*
X26144494Y36719463D01*
X26241185Y36798815D01*
X26320537Y36895506D01*
X26379502Y37005820D01*
X26415812Y37125518D01*
X26428072Y37250000D01*
X26425000Y37814250D01*
X26266250Y37973000D01*
X25067000Y37973000D01*
X24813000Y37973000D01*
X24793000Y37973000D01*
X24793000Y38227000D01*
X24813000Y38227000D01*
X24813000Y39426250D01*
X25067000Y39426250D01*
X25067000Y38227000D01*
X26266250Y38227000D01*
X26425000Y38385750D01*
X26428072Y38950000D01*
X26415812Y39074482D01*
X26379502Y39194180D01*
X26320537Y39304494D01*
X26241185Y39401185D01*
X26144494Y39480537D01*
X26034180Y39539502D01*
X25914482Y39575812D01*
X25790000Y39588072D01*
X25225750Y39585000D01*
X25067000Y39426250D01*
X24813000Y39426250D01*
X24713679Y39525571D01*
X24715000Y39538981D01*
X24719040Y39579999D01*
X24715000Y39621018D01*
X24715000Y43592070D01*
X24794759Y43645363D01*
X24994637Y43845241D01*
X25150000Y44077759D01*
X25305363Y43845241D01*
X25505241Y43645363D01*
X25740273Y43488320D01*
X26001426Y43380147D01*
X26278665Y43325000D01*
X26561335Y43325000D01*
X26838574Y43380147D01*
X27099727Y43488320D01*
X27334759Y43645363D01*
X27534637Y43845241D01*
X27691680Y44080273D01*
X27696067Y44090865D01*
X27807615Y43904869D01*
X27996586Y43696481D01*
X28222580Y43528963D01*
X28476913Y43408754D01*
X28610961Y43368096D01*
X28833000Y43490085D01*
X28833000Y44633000D01*
X28813000Y44633000D01*
X28813000Y44887000D01*
X28833000Y44887000D01*
X28833000Y46029915D01*
X29087000Y46029915D01*
X29087000Y44887000D01*
X29107000Y44887000D01*
X29107000Y44633000D01*
X29087000Y44633000D01*
X29087000Y43490085D01*
X29309039Y43368096D01*
X29443087Y43408754D01*
X29697420Y43528963D01*
X29923414Y43696481D01*
X30112385Y43904869D01*
X30223933Y44090865D01*
X30228320Y44080273D01*
X30385363Y43845241D01*
X30585241Y43645363D01*
X30820273Y43488320D01*
X31081426Y43380147D01*
X31358665Y43325000D01*
X31641335Y43325000D01*
X31918574Y43380147D01*
X32179727Y43488320D01*
X32414759Y43645363D01*
X32614637Y43845241D01*
X32771680Y44080273D01*
X32879853Y44341426D01*
X32935000Y44618665D01*
X32935000Y44901335D01*
X32879853Y45178574D01*
X32771680Y45439727D01*
X32614637Y45674759D01*
X32414759Y45874637D01*
X32179727Y46031680D01*
X31918574Y46139853D01*
X31641335Y46195000D01*
X31358665Y46195000D01*
X31081426Y46139853D01*
X30820273Y46031680D01*
X30585241Y45874637D01*
X30385363Y45674759D01*
X30228320Y45439727D01*
X30223933Y45429135D01*
X30112385Y45615131D01*
X29923414Y45823519D01*
X29697420Y45991037D01*
X29443087Y46111246D01*
X29309039Y46151904D01*
X29087000Y46029915D01*
X28833000Y46029915D01*
X28610961Y46151904D01*
X28476913Y46111246D01*
X28222580Y45991037D01*
X27996586Y45823519D01*
X27807615Y45615131D01*
X27696067Y45429135D01*
X27691680Y45439727D01*
X27534637Y45674759D01*
X27334759Y45874637D01*
X27099727Y46031680D01*
X26838574Y46139853D01*
X26561335Y46195000D01*
X26278665Y46195000D01*
X26001426Y46139853D01*
X25915001Y46104055D01*
X25915001Y58655945D01*
X26001426Y58620147D01*
X26278665Y58565000D01*
X26561335Y58565000D01*
X26838574Y58620147D01*
X27099727Y58728320D01*
X27334759Y58885363D01*
X27534637Y59085241D01*
X27690000Y59317759D01*
X27845363Y59085241D01*
X28045241Y58885363D01*
X28280273Y58728320D01*
X28541426Y58620147D01*
X28818665Y58565000D01*
X29101335Y58565000D01*
X29378574Y58620147D01*
X29639727Y58728320D01*
X29874759Y58885363D01*
X30073357Y59083961D01*
X30074188Y59075518D01*
X30110498Y58955820D01*
X30169463Y58845506D01*
X30248815Y58748815D01*
X30345506Y58669463D01*
X30455820Y58610498D01*
X30575518Y58574188D01*
X30700000Y58561928D01*
X32300000Y58561928D01*
X32424482Y58574188D01*
X32544180Y58610498D01*
X32654494Y58669463D01*
X32751185Y58748815D01*
X32830537Y58845506D01*
X32889502Y58955820D01*
X32925812Y59075518D01*
X32938072Y59200000D01*
X32938072Y60800000D01*
X32925812Y60924482D01*
X32889502Y61044180D01*
X32830537Y61154494D01*
X32751185Y61251185D01*
X32654494Y61330537D01*
X32544180Y61389502D01*
X32424482Y61425812D01*
X32300000Y61438072D01*
X30700000Y61438072D01*
X30575518Y61425812D01*
X30455820Y61389502D01*
X30345506Y61330537D01*
X30248815Y61251185D01*
X30169463Y61154494D01*
X30110498Y61044180D01*
X30074188Y60924482D01*
X30073357Y60916039D01*
X29874759Y61114637D01*
X29639727Y61271680D01*
X29378574Y61379853D01*
X29101335Y61435000D01*
X28818665Y61435000D01*
X28541426Y61379853D01*
X28280273Y61271680D01*
X28045241Y61114637D01*
X27845363Y60914759D01*
X27690000Y60682241D01*
X27534637Y60914759D01*
X27334759Y61114637D01*
X27099727Y61271680D01*
X26838574Y61379853D01*
X26561335Y61435000D01*
X26278665Y61435000D01*
X26001426Y61379853D01*
X25915001Y61344055D01*
X25915001Y68458981D01*
X25919041Y68499999D01*
X25902919Y68663688D01*
X25855173Y68821086D01*
X25777637Y68966145D01*
X25722069Y69033855D01*
X25673292Y69093290D01*
X25641429Y69119439D01*
X25496286Y69264582D01*
X25515000Y69358665D01*
X25515000Y69641335D01*
X25459853Y69918574D01*
X25351680Y70179727D01*
X25194637Y70414759D01*
X24994759Y70614637D01*
X24759727Y70771680D01*
X24498574Y70879853D01*
X24221335Y70935000D01*
X23938665Y70935000D01*
X23661426Y70879853D01*
X23400273Y70771680D01*
X23165241Y70614637D01*
X22965363Y70414759D01*
X22808320Y70179727D01*
X22700147Y69918574D01*
X22695000Y69892699D01*
X22689853Y69918574D01*
X22581680Y70179727D01*
X22424637Y70414759D01*
X22224759Y70614637D01*
X21989727Y70771680D01*
X21728574Y70879853D01*
X21451335Y70935000D01*
X21168665Y70935000D01*
X20891426Y70879853D01*
X20630273Y70771680D01*
X20395241Y70614637D01*
X20195363Y70414759D01*
X20038320Y70179727D01*
X19930147Y69918574D01*
X19925000Y69892699D01*
X19919853Y69918574D01*
X19811680Y70179727D01*
X19654637Y70414759D01*
X19454759Y70614637D01*
X19219727Y70771680D01*
X18958574Y70879853D01*
X18681335Y70935000D01*
X18398665Y70935000D01*
X18121426Y70879853D01*
X17890000Y70783993D01*
X17890000Y71105252D01*
X18069759Y71225363D01*
X18269637Y71425241D01*
X18426680Y71660273D01*
X18534853Y71921426D01*
X18540000Y71947301D01*
X18545147Y71921426D01*
X18653320Y71660273D01*
X18810363Y71425241D01*
X19010241Y71225363D01*
X19245273Y71068320D01*
X19506426Y70960147D01*
X19783665Y70905000D01*
X20066335Y70905000D01*
X20343574Y70960147D01*
X20604727Y71068320D01*
X20839759Y71225363D01*
X20961694Y71347298D01*
X21881903Y71347298D01*
X21953486Y71103329D01*
X22208996Y70982429D01*
X22483184Y70913700D01*
X22765512Y70899783D01*
X23045130Y70941213D01*
X23311292Y71036397D01*
X23436514Y71103329D01*
X23458870Y71179525D01*
X28405000Y71179525D01*
X28405000Y70660475D01*
X28506261Y70151399D01*
X28704893Y69671859D01*
X28993262Y69240285D01*
X29360285Y68873262D01*
X29791859Y68584893D01*
X30271399Y68386261D01*
X30780475Y68285000D01*
X31299525Y68285000D01*
X31808601Y68386261D01*
X32288141Y68584893D01*
X32719715Y68873262D01*
X33086738Y69240285D01*
X33375107Y69671859D01*
X33573739Y70151399D01*
X33675000Y70660475D01*
X33675000Y71179525D01*
X33573739Y71688601D01*
X33375107Y72168141D01*
X33086738Y72599715D01*
X32719715Y72966738D01*
X32288141Y73255107D01*
X31808601Y73453739D01*
X31299525Y73555000D01*
X30780475Y73555000D01*
X30271399Y73453739D01*
X29791859Y73255107D01*
X29360285Y72966738D01*
X28993262Y72599715D01*
X28704893Y72168141D01*
X28506261Y71688601D01*
X28405000Y71179525D01*
X23458870Y71179525D01*
X23508097Y71347298D01*
X22695000Y72160395D01*
X21881903Y71347298D01*
X20961694Y71347298D01*
X21039637Y71425241D01*
X21196680Y71660273D01*
X21304853Y71921426D01*
X21310513Y71949882D01*
X21391397Y71723708D01*
X21458329Y71598486D01*
X21702298Y71526903D01*
X22515395Y72340000D01*
X22874605Y72340000D01*
X23687702Y71526903D01*
X23931671Y71598486D01*
X24052571Y71853996D01*
X24121300Y72128184D01*
X24135217Y72410512D01*
X24093787Y72690130D01*
X23998603Y72956292D01*
X23931671Y73081514D01*
X23687702Y73153097D01*
X22874605Y72340000D01*
X22515395Y72340000D01*
X21702298Y73153097D01*
X21458329Y73081514D01*
X21337429Y72826004D01*
X21311788Y72723711D01*
X21304853Y72758574D01*
X21196680Y73019727D01*
X21039637Y73254759D01*
X20961694Y73332702D01*
X21881903Y73332702D01*
X22695000Y72519605D01*
X23508097Y73332702D01*
X23436514Y73576671D01*
X23181004Y73697571D01*
X22906816Y73766300D01*
X22624488Y73780217D01*
X22344870Y73738787D01*
X22078708Y73643603D01*
X21953486Y73576671D01*
X21881903Y73332702D01*
X20961694Y73332702D01*
X20839759Y73454637D01*
X20604727Y73611680D01*
X20343574Y73719853D01*
X20066335Y73775000D01*
X19783665Y73775000D01*
X19506426Y73719853D01*
X19245273Y73611680D01*
X19010241Y73454637D01*
X18810363Y73254759D01*
X18653320Y73019727D01*
X18545147Y72758574D01*
X18540000Y72732699D01*
X18534853Y72758574D01*
X18426680Y73019727D01*
X18269637Y73254759D01*
X18069759Y73454637D01*
X17834727Y73611680D01*
X17573574Y73719853D01*
X17296335Y73775000D01*
X17013665Y73775000D01*
X16736426Y73719853D01*
X16475273Y73611680D01*
X16240241Y73454637D01*
X16040363Y73254759D01*
X15883320Y73019727D01*
X15775147Y72758574D01*
X15770000Y72732699D01*
X15764853Y72758574D01*
X15656680Y73019727D01*
X15499637Y73254759D01*
X15299759Y73454637D01*
X15064727Y73611680D01*
X14803574Y73719853D01*
X14526335Y73775000D01*
X14243665Y73775000D01*
X13966426Y73719853D01*
X13705273Y73611680D01*
X13470241Y73454637D01*
X13270363Y73254759D01*
X13113320Y73019727D01*
X13005147Y72758574D01*
X12950000Y72481335D01*
X12950000Y72198665D01*
X13005147Y71921426D01*
X13113320Y71660273D01*
X13270363Y71425241D01*
X13470241Y71225363D01*
X13650001Y71105252D01*
X13650001Y70938072D01*
X12200000Y70938072D01*
X12075518Y70925812D01*
X11955820Y70889502D01*
X11845506Y70830537D01*
X11748815Y70751185D01*
X11669463Y70654494D01*
X11610498Y70544180D01*
X11574188Y70424482D01*
X11561928Y70300000D01*
X11561928Y68700000D01*
X11574188Y68575518D01*
X11610498Y68455820D01*
X11669463Y68345506D01*
X11748815Y68248815D01*
X11845506Y68169463D01*
X11955820Y68110498D01*
X12075518Y68074188D01*
X12200000Y68061928D01*
X12265000Y68061928D01*
X12265001Y64396415D01*
X12261444Y64360300D01*
X12275635Y64216215D01*
X12317664Y64077667D01*
X12385914Y63949980D01*
X12477763Y63838062D01*
X12505808Y63815046D01*
X15275729Y61045125D01*
X15145363Y60914759D01*
X14990000Y60682241D01*
X14834637Y60914759D01*
X14634759Y61114637D01*
X14399727Y61271680D01*
X14138574Y61379853D01*
X13861335Y61435000D01*
X13578665Y61435000D01*
X13301426Y61379853D01*
X13040273Y61271680D01*
X12805241Y61114637D01*
X12605363Y60914759D01*
X12450000Y60682241D01*
X12294637Y60914759D01*
X12094759Y61114637D01*
X11859727Y61271680D01*
X11598574Y61379853D01*
X11321335Y61435000D01*
X11038665Y61435000D01*
X10761426Y61379853D01*
X10500273Y61271680D01*
X10265241Y61114637D01*
X10065363Y60914759D01*
X9910000Y60682241D01*
X9754637Y60914759D01*
X9554759Y61114637D01*
X9319727Y61271680D01*
X9058574Y61379853D01*
X8781335Y61435000D01*
X8498665Y61435000D01*
X8221426Y61379853D01*
X7960273Y61271680D01*
X7725241Y61114637D01*
X7525363Y60914759D01*
X7370000Y60682241D01*
X7214637Y60914759D01*
X7014759Y61114637D01*
X6779727Y61271680D01*
X6518574Y61379853D01*
X6241335Y61435000D01*
X5958665Y61435000D01*
X5681426Y61379853D01*
X5420273Y61271680D01*
X5185241Y61114637D01*
X4985363Y60914759D01*
X4830000Y60682241D01*
X4674637Y60914759D01*
X4474759Y61114637D01*
X4239727Y61271680D01*
X3978574Y61379853D01*
X3701335Y61435000D01*
X3418665Y61435000D01*
X3141426Y61379853D01*
X2880273Y61271680D01*
X2645241Y61114637D01*
X2445363Y60914759D01*
X2288320Y60679727D01*
X2180147Y60418574D01*
X2125000Y60141335D01*
X660000Y60141335D01*
X660000Y71179525D01*
X3405000Y71179525D01*
X3405000Y70660475D01*
X3506261Y70151399D01*
X3704893Y69671859D01*
X3993262Y69240285D01*
X4360285Y68873262D01*
X4791859Y68584893D01*
X5271399Y68386261D01*
X5780475Y68285000D01*
X6299525Y68285000D01*
X6808601Y68386261D01*
X7288141Y68584893D01*
X7719715Y68873262D01*
X8086738Y69240285D01*
X8375107Y69671859D01*
X8573739Y70151399D01*
X8675000Y70660475D01*
X8675000Y71179525D01*
X8573739Y71688601D01*
X8375107Y72168141D01*
X8086738Y72599715D01*
X7719715Y72966738D01*
X7288141Y73255107D01*
X6808601Y73453739D01*
X6299525Y73555000D01*
X5780475Y73555000D01*
X5271399Y73453739D01*
X4791859Y73255107D01*
X4360285Y72966738D01*
X3993262Y72599715D01*
X3704893Y72168141D01*
X3506261Y71688601D01*
X3405000Y71179525D01*
X660000Y71179525D01*
X660000Y79340000D01*
X36840001Y79340000D01*
X36840000Y660000D01*
G04 #@! TA.AperFunction,Conductor*
D19*
G36*
X36840000Y660000D02*
G01*
X660000Y660000D01*
X660000Y5226260D01*
X6945000Y5226260D01*
X6945000Y4933740D01*
X7002068Y4646842D01*
X7114010Y4376589D01*
X7276525Y4133368D01*
X7483368Y3926525D01*
X7657760Y3810000D01*
X7483368Y3693475D01*
X7276525Y3486632D01*
X7114010Y3243411D01*
X7002068Y2973158D01*
X6945000Y2686260D01*
X6945000Y2393740D01*
X7002068Y2106842D01*
X7114010Y1836589D01*
X7276525Y1593368D01*
X7483368Y1386525D01*
X7726589Y1224010D01*
X7996842Y1112068D01*
X8283740Y1055000D01*
X8576260Y1055000D01*
X8863158Y1112068D01*
X9133411Y1224010D01*
X9376632Y1386525D01*
X9583475Y1593368D01*
X9745990Y1836589D01*
X9857932Y2106842D01*
X9915000Y2393740D01*
X9915000Y2686260D01*
X9857932Y2973158D01*
X9745990Y3243411D01*
X9583475Y3486632D01*
X9376632Y3693475D01*
X9202240Y3810000D01*
X9376632Y3926525D01*
X9583475Y4133368D01*
X9745990Y4376589D01*
X9857932Y4646842D01*
X9915000Y4933740D01*
X9915000Y5226260D01*
X27265000Y5226260D01*
X27265000Y4933740D01*
X27322068Y4646842D01*
X27434010Y4376589D01*
X27596525Y4133368D01*
X27803368Y3926525D01*
X27977760Y3810000D01*
X27803368Y3693475D01*
X27596525Y3486632D01*
X27434010Y3243411D01*
X27322068Y2973158D01*
X27265000Y2686260D01*
X27265000Y2393740D01*
X27322068Y2106842D01*
X27434010Y1836589D01*
X27596525Y1593368D01*
X27803368Y1386525D01*
X28046589Y1224010D01*
X28316842Y1112068D01*
X28603740Y1055000D01*
X28896260Y1055000D01*
X29183158Y1112068D01*
X29453411Y1224010D01*
X29696632Y1386525D01*
X29903475Y1593368D01*
X30065990Y1836589D01*
X30177932Y2106842D01*
X30235000Y2393740D01*
X30235000Y2686260D01*
X30177932Y2973158D01*
X30065990Y3243411D01*
X29903475Y3486632D01*
X29696632Y3693475D01*
X29522240Y3810000D01*
X29696632Y3926525D01*
X29903475Y4133368D01*
X30065990Y4376589D01*
X30177932Y4646842D01*
X30235000Y4933740D01*
X30235000Y5226260D01*
X30177932Y5513158D01*
X30065990Y5783411D01*
X29903475Y6026632D01*
X29696632Y6233475D01*
X29453411Y6395990D01*
X29183158Y6507932D01*
X28896260Y6565000D01*
X28603740Y6565000D01*
X28316842Y6507932D01*
X28046589Y6395990D01*
X27803368Y6233475D01*
X27596525Y6026632D01*
X27434010Y5783411D01*
X27322068Y5513158D01*
X27265000Y5226260D01*
X9915000Y5226260D01*
X9857932Y5513158D01*
X9745990Y5783411D01*
X9583475Y6026632D01*
X9376632Y6233475D01*
X9133411Y6395990D01*
X8863158Y6507932D01*
X8576260Y6565000D01*
X8283740Y6565000D01*
X7996842Y6507932D01*
X7726589Y6395990D01*
X7483368Y6233475D01*
X7276525Y6026632D01*
X7114010Y5783411D01*
X7002068Y5513158D01*
X6945000Y5226260D01*
X660000Y5226260D01*
X660000Y60141335D01*
X2125000Y60141335D01*
X2125000Y59858665D01*
X2180147Y59581426D01*
X2288320Y59320273D01*
X2445363Y59085241D01*
X2645241Y58885363D01*
X2880273Y58728320D01*
X3141426Y58620147D01*
X3418665Y58565000D01*
X3701335Y58565000D01*
X3978574Y58620147D01*
X4239727Y58728320D01*
X4474759Y58885363D01*
X4674637Y59085241D01*
X4830000Y59317759D01*
X4985363Y59085241D01*
X5185241Y58885363D01*
X5420273Y58728320D01*
X5681426Y58620147D01*
X5958665Y58565000D01*
X6241335Y58565000D01*
X6518574Y58620147D01*
X6779727Y58728320D01*
X7014759Y58885363D01*
X7214637Y59085241D01*
X7370000Y59317759D01*
X7525363Y59085241D01*
X7725241Y58885363D01*
X7960273Y58728320D01*
X8221426Y58620147D01*
X8498665Y58565000D01*
X8781335Y58565000D01*
X9058574Y58620147D01*
X9319727Y58728320D01*
X9554759Y58885363D01*
X9754637Y59085241D01*
X9910000Y59317759D01*
X10065363Y59085241D01*
X10265241Y58885363D01*
X10500273Y58728320D01*
X10761426Y58620147D01*
X11038665Y58565000D01*
X11321335Y58565000D01*
X11598574Y58620147D01*
X11859727Y58728320D01*
X12094759Y58885363D01*
X12294637Y59085241D01*
X12450000Y59317759D01*
X12605363Y59085241D01*
X12805241Y58885363D01*
X13040273Y58728320D01*
X13301426Y58620147D01*
X13578665Y58565000D01*
X13861335Y58565000D01*
X14138574Y58620147D01*
X14399727Y58728320D01*
X14634759Y58885363D01*
X14834637Y59085241D01*
X14990000Y59317759D01*
X15145363Y59085241D01*
X15345241Y58885363D01*
X15580273Y58728320D01*
X15841426Y58620147D01*
X16118665Y58565000D01*
X16401335Y58565000D01*
X16625401Y58609570D01*
X16625400Y47336005D01*
X16621844Y47299900D01*
X16625400Y47263796D01*
X16636035Y47155816D01*
X16678063Y47017268D01*
X16746313Y46889581D01*
X16838162Y46777663D01*
X16866208Y46754646D01*
X17815729Y45805125D01*
X17685363Y45674759D01*
X17530000Y45442241D01*
X17374637Y45674759D01*
X17174759Y45874637D01*
X16939727Y46031680D01*
X16678574Y46139853D01*
X16401335Y46195000D01*
X16118665Y46195000D01*
X15841426Y46139853D01*
X15580273Y46031680D01*
X15345241Y45874637D01*
X15145363Y45674759D01*
X14990000Y45442241D01*
X14834637Y45674759D01*
X14634759Y45874637D01*
X14399727Y46031680D01*
X14138574Y46139853D01*
X13861335Y46195000D01*
X13578665Y46195000D01*
X13301426Y46139853D01*
X13288856Y46134646D01*
X13364759Y46185363D01*
X13564637Y46385241D01*
X13721680Y46620273D01*
X13829853Y46881426D01*
X13885000Y47158665D01*
X13885000Y47441335D01*
X13829853Y47718574D01*
X13721680Y47979727D01*
X13564637Y48214759D01*
X13364759Y48414637D01*
X13129727Y48571680D01*
X12868574Y48679853D01*
X12591335Y48735000D01*
X12308665Y48735000D01*
X12031426Y48679853D01*
X11770273Y48571680D01*
X11535241Y48414637D01*
X11335363Y48214759D01*
X11180000Y47982241D01*
X11024637Y48214759D01*
X10824759Y48414637D01*
X10589727Y48571680D01*
X10328574Y48679853D01*
X10051335Y48735000D01*
X9768665Y48735000D01*
X9491426Y48679853D01*
X9230273Y48571680D01*
X8995241Y48414637D01*
X8795363Y48214759D01*
X8638320Y47979727D01*
X8530147Y47718574D01*
X8475000Y47441335D01*
X8475000Y47158665D01*
X8530147Y46881426D01*
X8638320Y46620273D01*
X8795363Y46385241D01*
X8995241Y46185363D01*
X9071144Y46134646D01*
X9058574Y46139853D01*
X8781335Y46195000D01*
X8498665Y46195000D01*
X8221426Y46139853D01*
X7960273Y46031680D01*
X7725241Y45874637D01*
X7525363Y45674759D01*
X7370000Y45442241D01*
X7214637Y45674759D01*
X7014759Y45874637D01*
X6779727Y46031680D01*
X6518574Y46139853D01*
X6241335Y46195000D01*
X5958665Y46195000D01*
X5681426Y46139853D01*
X5420273Y46031680D01*
X5185241Y45874637D01*
X4985363Y45674759D01*
X4830000Y45442241D01*
X4674637Y45674759D01*
X4474759Y45874637D01*
X4239727Y46031680D01*
X3978574Y46139853D01*
X3701335Y46195000D01*
X3418665Y46195000D01*
X3141426Y46139853D01*
X2880273Y46031680D01*
X2645241Y45874637D01*
X2445363Y45674759D01*
X2288320Y45439727D01*
X2180147Y45178574D01*
X2125000Y44901335D01*
X2125000Y44618665D01*
X2180147Y44341426D01*
X2288320Y44080273D01*
X2445363Y43845241D01*
X2645241Y43645363D01*
X2880273Y43488320D01*
X3141426Y43380147D01*
X3418665Y43325000D01*
X3701335Y43325000D01*
X3978574Y43380147D01*
X4239727Y43488320D01*
X4474759Y43645363D01*
X4674637Y43845241D01*
X4830000Y44077759D01*
X4985363Y43845241D01*
X5185241Y43645363D01*
X5420273Y43488320D01*
X5681426Y43380147D01*
X5958665Y43325000D01*
X6241335Y43325000D01*
X6518574Y43380147D01*
X6779727Y43488320D01*
X7014759Y43645363D01*
X7214637Y43845241D01*
X7370000Y44077759D01*
X7525363Y43845241D01*
X7725241Y43645363D01*
X7960273Y43488320D01*
X8221426Y43380147D01*
X8498665Y43325000D01*
X8781335Y43325000D01*
X9058574Y43380147D01*
X9319727Y43488320D01*
X9554759Y43645363D01*
X9754637Y43845241D01*
X9910000Y44077759D01*
X10065363Y43845241D01*
X10265241Y43645363D01*
X10500273Y43488320D01*
X10761426Y43380147D01*
X11038665Y43325000D01*
X11321335Y43325000D01*
X11598574Y43380147D01*
X11859727Y43488320D01*
X12094759Y43645363D01*
X12294637Y43845241D01*
X12450000Y44077759D01*
X12605363Y43845241D01*
X12805241Y43645363D01*
X13040273Y43488320D01*
X13301426Y43380147D01*
X13578665Y43325000D01*
X13861335Y43325000D01*
X14138574Y43380147D01*
X14399727Y43488320D01*
X14634759Y43645363D01*
X14834637Y43845241D01*
X14990000Y44077759D01*
X15145363Y43845241D01*
X15345241Y43645363D01*
X15580273Y43488320D01*
X15841426Y43380147D01*
X16118665Y43325000D01*
X16401335Y43325000D01*
X16678574Y43380147D01*
X16939727Y43488320D01*
X17174759Y43645363D01*
X17374637Y43845241D01*
X17530000Y44077759D01*
X17685363Y43845241D01*
X17885241Y43645363D01*
X18120273Y43488320D01*
X18381426Y43380147D01*
X18658665Y43325000D01*
X18941335Y43325000D01*
X19218574Y43380147D01*
X19479727Y43488320D01*
X19714759Y43645363D01*
X19914637Y43845241D01*
X20070000Y44077759D01*
X20225363Y43845241D01*
X20425241Y43645363D01*
X20660273Y43488320D01*
X20921426Y43380147D01*
X21198665Y43325000D01*
X21481335Y43325000D01*
X21758574Y43380147D01*
X22019727Y43488320D01*
X22254759Y43645363D01*
X22454637Y43845241D01*
X22610000Y44077759D01*
X22765363Y43845241D01*
X22965241Y43645363D01*
X23045000Y43592070D01*
X23045001Y39925869D01*
X22677940Y39558807D01*
X22546260Y39585000D01*
X22253740Y39585000D01*
X21966842Y39527932D01*
X21696589Y39415990D01*
X21453368Y39253475D01*
X21246525Y39046632D01*
X21130000Y38872240D01*
X21013475Y39046632D01*
X20806632Y39253475D01*
X20563411Y39415990D01*
X20293158Y39527932D01*
X20006260Y39585000D01*
X19713740Y39585000D01*
X19426842Y39527932D01*
X19156589Y39415990D01*
X18913368Y39253475D01*
X18706525Y39046632D01*
X18590000Y38872240D01*
X18473475Y39046632D01*
X18266632Y39253475D01*
X18023411Y39415990D01*
X17753158Y39527932D01*
X17466260Y39585000D01*
X17173740Y39585000D01*
X16886842Y39527932D01*
X16616589Y39415990D01*
X16373368Y39253475D01*
X16166525Y39046632D01*
X16050000Y38872240D01*
X15933475Y39046632D01*
X15726632Y39253475D01*
X15483411Y39415990D01*
X15213158Y39527932D01*
X14926260Y39585000D01*
X14633740Y39585000D01*
X14346842Y39527932D01*
X14076589Y39415990D01*
X13833368Y39253475D01*
X13626525Y39046632D01*
X13510000Y38872240D01*
X13393475Y39046632D01*
X13186632Y39253475D01*
X12943411Y39415990D01*
X12673158Y39527932D01*
X12386260Y39585000D01*
X12093740Y39585000D01*
X11806842Y39527932D01*
X11536589Y39415990D01*
X11293368Y39253475D01*
X11086525Y39046632D01*
X10924010Y38803411D01*
X10812068Y38533158D01*
X10755000Y38246260D01*
X10755000Y37953740D01*
X10812068Y37666842D01*
X10924010Y37396589D01*
X11086525Y37153368D01*
X11245373Y36994520D01*
X10475808Y36224954D01*
X10447762Y36201937D01*
X10355913Y36090019D01*
X10287663Y35962332D01*
X10258384Y35865813D01*
X10245635Y35823785D01*
X10231444Y35679700D01*
X10235000Y35643595D01*
X10235001Y31774883D01*
X10023368Y31633475D01*
X9816525Y31426632D01*
X9700000Y31252240D01*
X9583475Y31426632D01*
X9376632Y31633475D01*
X9133411Y31795990D01*
X8863158Y31907932D01*
X8576260Y31965000D01*
X8283740Y31965000D01*
X7996842Y31907932D01*
X7726589Y31795990D01*
X7483368Y31633475D01*
X7276525Y31426632D01*
X7114010Y31183411D01*
X7002068Y30913158D01*
X6945000Y30626260D01*
X6945000Y30333740D01*
X7002068Y30046842D01*
X7114010Y29776589D01*
X7276525Y29533368D01*
X7483368Y29326525D01*
X7726589Y29164010D01*
X7996842Y29052068D01*
X8283740Y28995000D01*
X8576260Y28995000D01*
X8863158Y29052068D01*
X9133411Y29164010D01*
X9376632Y29326525D01*
X9583475Y29533368D01*
X9700000Y29707760D01*
X9816525Y29533368D01*
X10023368Y29326525D01*
X10266589Y29164010D01*
X10536842Y29052068D01*
X10823740Y28995000D01*
X11116260Y28995000D01*
X11403158Y29052068D01*
X11673411Y29164010D01*
X11916632Y29326525D01*
X12123475Y29533368D01*
X12240000Y29707760D01*
X12356525Y29533368D01*
X12563368Y29326525D01*
X12806589Y29164010D01*
X13076842Y29052068D01*
X13363740Y28995000D01*
X13656260Y28995000D01*
X13943158Y29052068D01*
X14213411Y29164010D01*
X14456632Y29326525D01*
X14663475Y29533368D01*
X14780000Y29707760D01*
X14896525Y29533368D01*
X15103368Y29326525D01*
X15346589Y29164010D01*
X15616842Y29052068D01*
X15903740Y28995000D01*
X16196260Y28995000D01*
X16483158Y29052068D01*
X16753411Y29164010D01*
X16996632Y29326525D01*
X17203475Y29533368D01*
X17320000Y29707760D01*
X17436525Y29533368D01*
X17643368Y29326525D01*
X17886589Y29164010D01*
X18156842Y29052068D01*
X18443740Y28995000D01*
X18736260Y28995000D01*
X19023158Y29052068D01*
X19293411Y29164010D01*
X19536632Y29326525D01*
X19743475Y29533368D01*
X19865195Y29715534D01*
X19934822Y29598645D01*
X20129731Y29382412D01*
X20363080Y29208359D01*
X20625901Y29083175D01*
X20773110Y29038524D01*
X21003000Y29159845D01*
X21003000Y30353000D01*
X20983000Y30353000D01*
X20983000Y30607000D01*
X21003000Y30607000D01*
X21003000Y31800155D01*
X21257000Y31800155D01*
X21257000Y30607000D01*
X21277000Y30607000D01*
X21277000Y30353000D01*
X21257000Y30353000D01*
X21257000Y29159845D01*
X21486890Y29038524D01*
X21634099Y29083175D01*
X21896920Y29208359D01*
X22130269Y29382412D01*
X22325178Y29598645D01*
X22394805Y29715534D01*
X22516525Y29533368D01*
X22723368Y29326525D01*
X22966589Y29164010D01*
X23236842Y29052068D01*
X23523740Y28995000D01*
X23816260Y28995000D01*
X24103158Y29052068D01*
X24373411Y29164010D01*
X24616632Y29326525D01*
X24823475Y29533368D01*
X24940000Y29707760D01*
X25056525Y29533368D01*
X25263368Y29326525D01*
X25506589Y29164010D01*
X25776842Y29052068D01*
X26063740Y28995000D01*
X26356260Y28995000D01*
X26643158Y29052068D01*
X26913411Y29164010D01*
X27156632Y29326525D01*
X27288487Y29458380D01*
X27310498Y29385820D01*
X27369463Y29275506D01*
X27448815Y29178815D01*
X27545506Y29099463D01*
X27655820Y29040498D01*
X27775518Y29004188D01*
X27900000Y28991928D01*
X29600000Y28991928D01*
X29724482Y29004188D01*
X29844180Y29040498D01*
X29954494Y29099463D01*
X30051185Y29178815D01*
X30130537Y29275506D01*
X30189502Y29385820D01*
X30225812Y29505518D01*
X30238072Y29630000D01*
X30238072Y31330000D01*
X30225812Y31454482D01*
X30189502Y31574180D01*
X30130537Y31684494D01*
X30051185Y31781185D01*
X29954494Y31860537D01*
X29844180Y31919502D01*
X29724482Y31955812D01*
X29600000Y31968072D01*
X27900000Y31968072D01*
X27775518Y31955812D01*
X27655820Y31919502D01*
X27545506Y31860537D01*
X27448815Y31781185D01*
X27369463Y31684494D01*
X27310498Y31574180D01*
X27288487Y31501620D01*
X27156632Y31633475D01*
X26913411Y31795990D01*
X26643158Y31907932D01*
X26356260Y31965000D01*
X26063740Y31965000D01*
X25776842Y31907932D01*
X25506589Y31795990D01*
X25263368Y31633475D01*
X25056525Y31426632D01*
X24940000Y31252240D01*
X24823475Y31426632D01*
X24616632Y31633475D01*
X24373411Y31795990D01*
X24103158Y31907932D01*
X23816260Y31965000D01*
X23523740Y31965000D01*
X23236842Y31907932D01*
X22966589Y31795990D01*
X22723368Y31633475D01*
X22516525Y31426632D01*
X22394805Y31244466D01*
X22325178Y31361355D01*
X22130269Y31577588D01*
X21896920Y31751641D01*
X21634099Y31876825D01*
X21486890Y31921476D01*
X21257000Y31800155D01*
X21003000Y31800155D01*
X20773110Y31921476D01*
X20625901Y31876825D01*
X20363080Y31751641D01*
X20129731Y31577588D01*
X19934822Y31361355D01*
X19865195Y31244466D01*
X19743475Y31426632D01*
X19536632Y31633475D01*
X19325000Y31774883D01*
X19325000Y33103595D01*
X19328556Y33139700D01*
X19314365Y33283785D01*
X19272337Y33422334D01*
X19204087Y33550020D01*
X19135253Y33633894D01*
X19135250Y33633897D01*
X19112237Y33661938D01*
X19084197Y33684950D01*
X15774627Y36994520D01*
X15933475Y37153368D01*
X16050000Y37327760D01*
X16166525Y37153368D01*
X16373368Y36946525D01*
X16616589Y36784010D01*
X16886842Y36672068D01*
X17173740Y36615000D01*
X17466260Y36615000D01*
X17753158Y36672068D01*
X18023411Y36784010D01*
X18266632Y36946525D01*
X18473475Y37153368D01*
X18590000Y37327760D01*
X18706525Y37153368D01*
X18913368Y36946525D01*
X19156589Y36784010D01*
X19426842Y36672068D01*
X19713740Y36615000D01*
X20006260Y36615000D01*
X20293158Y36672068D01*
X20563411Y36784010D01*
X20806632Y36946525D01*
X21013475Y37153368D01*
X21130000Y37327760D01*
X21246525Y37153368D01*
X21453368Y36946525D01*
X21696589Y36784010D01*
X21966842Y36672068D01*
X22253740Y36615000D01*
X22546260Y36615000D01*
X22833158Y36672068D01*
X23103411Y36784010D01*
X23346632Y36946525D01*
X23478487Y37078380D01*
X23500498Y37005820D01*
X23559463Y36895506D01*
X23638815Y36798815D01*
X23735506Y36719463D01*
X23845820Y36660498D01*
X23965518Y36624188D01*
X24090000Y36611928D01*
X24654250Y36615000D01*
X24813000Y36773750D01*
X24813000Y37973000D01*
X25067000Y37973000D01*
X25067000Y36773750D01*
X25225750Y36615000D01*
X25790000Y36611928D01*
X25914482Y36624188D01*
X26034180Y36660498D01*
X26144494Y36719463D01*
X26241185Y36798815D01*
X26320537Y36895506D01*
X26379502Y37005820D01*
X26415812Y37125518D01*
X26428072Y37250000D01*
X26425000Y37814250D01*
X26266250Y37973000D01*
X25067000Y37973000D01*
X24813000Y37973000D01*
X24793000Y37973000D01*
X24793000Y38227000D01*
X24813000Y38227000D01*
X24813000Y39426250D01*
X25067000Y39426250D01*
X25067000Y38227000D01*
X26266250Y38227000D01*
X26425000Y38385750D01*
X26428072Y38950000D01*
X26415812Y39074482D01*
X26379502Y39194180D01*
X26320537Y39304494D01*
X26241185Y39401185D01*
X26144494Y39480537D01*
X26034180Y39539502D01*
X25914482Y39575812D01*
X25790000Y39588072D01*
X25225750Y39585000D01*
X25067000Y39426250D01*
X24813000Y39426250D01*
X24713679Y39525571D01*
X24715000Y39538981D01*
X24719040Y39579999D01*
X24715000Y39621018D01*
X24715000Y43592070D01*
X24794759Y43645363D01*
X24994637Y43845241D01*
X25150000Y44077759D01*
X25305363Y43845241D01*
X25505241Y43645363D01*
X25740273Y43488320D01*
X26001426Y43380147D01*
X26278665Y43325000D01*
X26561335Y43325000D01*
X26838574Y43380147D01*
X27099727Y43488320D01*
X27334759Y43645363D01*
X27534637Y43845241D01*
X27691680Y44080273D01*
X27696067Y44090865D01*
X27807615Y43904869D01*
X27996586Y43696481D01*
X28222580Y43528963D01*
X28476913Y43408754D01*
X28610961Y43368096D01*
X28833000Y43490085D01*
X28833000Y44633000D01*
X28813000Y44633000D01*
X28813000Y44887000D01*
X28833000Y44887000D01*
X28833000Y46029915D01*
X29087000Y46029915D01*
X29087000Y44887000D01*
X29107000Y44887000D01*
X29107000Y44633000D01*
X29087000Y44633000D01*
X29087000Y43490085D01*
X29309039Y43368096D01*
X29443087Y43408754D01*
X29697420Y43528963D01*
X29923414Y43696481D01*
X30112385Y43904869D01*
X30223933Y44090865D01*
X30228320Y44080273D01*
X30385363Y43845241D01*
X30585241Y43645363D01*
X30820273Y43488320D01*
X31081426Y43380147D01*
X31358665Y43325000D01*
X31641335Y43325000D01*
X31918574Y43380147D01*
X32179727Y43488320D01*
X32414759Y43645363D01*
X32614637Y43845241D01*
X32771680Y44080273D01*
X32879853Y44341426D01*
X32935000Y44618665D01*
X32935000Y44901335D01*
X32879853Y45178574D01*
X32771680Y45439727D01*
X32614637Y45674759D01*
X32414759Y45874637D01*
X32179727Y46031680D01*
X31918574Y46139853D01*
X31641335Y46195000D01*
X31358665Y46195000D01*
X31081426Y46139853D01*
X30820273Y46031680D01*
X30585241Y45874637D01*
X30385363Y45674759D01*
X30228320Y45439727D01*
X30223933Y45429135D01*
X30112385Y45615131D01*
X29923414Y45823519D01*
X29697420Y45991037D01*
X29443087Y46111246D01*
X29309039Y46151904D01*
X29087000Y46029915D01*
X28833000Y46029915D01*
X28610961Y46151904D01*
X28476913Y46111246D01*
X28222580Y45991037D01*
X27996586Y45823519D01*
X27807615Y45615131D01*
X27696067Y45429135D01*
X27691680Y45439727D01*
X27534637Y45674759D01*
X27334759Y45874637D01*
X27099727Y46031680D01*
X26838574Y46139853D01*
X26561335Y46195000D01*
X26278665Y46195000D01*
X26001426Y46139853D01*
X25915001Y46104055D01*
X25915001Y58655945D01*
X26001426Y58620147D01*
X26278665Y58565000D01*
X26561335Y58565000D01*
X26838574Y58620147D01*
X27099727Y58728320D01*
X27334759Y58885363D01*
X27534637Y59085241D01*
X27690000Y59317759D01*
X27845363Y59085241D01*
X28045241Y58885363D01*
X28280273Y58728320D01*
X28541426Y58620147D01*
X28818665Y58565000D01*
X29101335Y58565000D01*
X29378574Y58620147D01*
X29639727Y58728320D01*
X29874759Y58885363D01*
X30073357Y59083961D01*
X30074188Y59075518D01*
X30110498Y58955820D01*
X30169463Y58845506D01*
X30248815Y58748815D01*
X30345506Y58669463D01*
X30455820Y58610498D01*
X30575518Y58574188D01*
X30700000Y58561928D01*
X32300000Y58561928D01*
X32424482Y58574188D01*
X32544180Y58610498D01*
X32654494Y58669463D01*
X32751185Y58748815D01*
X32830537Y58845506D01*
X32889502Y58955820D01*
X32925812Y59075518D01*
X32938072Y59200000D01*
X32938072Y60800000D01*
X32925812Y60924482D01*
X32889502Y61044180D01*
X32830537Y61154494D01*
X32751185Y61251185D01*
X32654494Y61330537D01*
X32544180Y61389502D01*
X32424482Y61425812D01*
X32300000Y61438072D01*
X30700000Y61438072D01*
X30575518Y61425812D01*
X30455820Y61389502D01*
X30345506Y61330537D01*
X30248815Y61251185D01*
X30169463Y61154494D01*
X30110498Y61044180D01*
X30074188Y60924482D01*
X30073357Y60916039D01*
X29874759Y61114637D01*
X29639727Y61271680D01*
X29378574Y61379853D01*
X29101335Y61435000D01*
X28818665Y61435000D01*
X28541426Y61379853D01*
X28280273Y61271680D01*
X28045241Y61114637D01*
X27845363Y60914759D01*
X27690000Y60682241D01*
X27534637Y60914759D01*
X27334759Y61114637D01*
X27099727Y61271680D01*
X26838574Y61379853D01*
X26561335Y61435000D01*
X26278665Y61435000D01*
X26001426Y61379853D01*
X25915001Y61344055D01*
X25915001Y68458981D01*
X25919041Y68499999D01*
X25902919Y68663688D01*
X25855173Y68821086D01*
X25777637Y68966145D01*
X25722069Y69033855D01*
X25673292Y69093290D01*
X25641429Y69119439D01*
X25496286Y69264582D01*
X25515000Y69358665D01*
X25515000Y69641335D01*
X25459853Y69918574D01*
X25351680Y70179727D01*
X25194637Y70414759D01*
X24994759Y70614637D01*
X24759727Y70771680D01*
X24498574Y70879853D01*
X24221335Y70935000D01*
X23938665Y70935000D01*
X23661426Y70879853D01*
X23400273Y70771680D01*
X23165241Y70614637D01*
X22965363Y70414759D01*
X22808320Y70179727D01*
X22700147Y69918574D01*
X22695000Y69892699D01*
X22689853Y69918574D01*
X22581680Y70179727D01*
X22424637Y70414759D01*
X22224759Y70614637D01*
X21989727Y70771680D01*
X21728574Y70879853D01*
X21451335Y70935000D01*
X21168665Y70935000D01*
X20891426Y70879853D01*
X20630273Y70771680D01*
X20395241Y70614637D01*
X20195363Y70414759D01*
X20038320Y70179727D01*
X19930147Y69918574D01*
X19925000Y69892699D01*
X19919853Y69918574D01*
X19811680Y70179727D01*
X19654637Y70414759D01*
X19454759Y70614637D01*
X19219727Y70771680D01*
X18958574Y70879853D01*
X18681335Y70935000D01*
X18398665Y70935000D01*
X18121426Y70879853D01*
X17890000Y70783993D01*
X17890000Y71105252D01*
X18069759Y71225363D01*
X18269637Y71425241D01*
X18426680Y71660273D01*
X18534853Y71921426D01*
X18540000Y71947301D01*
X18545147Y71921426D01*
X18653320Y71660273D01*
X18810363Y71425241D01*
X19010241Y71225363D01*
X19245273Y71068320D01*
X19506426Y70960147D01*
X19783665Y70905000D01*
X20066335Y70905000D01*
X20343574Y70960147D01*
X20604727Y71068320D01*
X20839759Y71225363D01*
X20961694Y71347298D01*
X21881903Y71347298D01*
X21953486Y71103329D01*
X22208996Y70982429D01*
X22483184Y70913700D01*
X22765512Y70899783D01*
X23045130Y70941213D01*
X23311292Y71036397D01*
X23436514Y71103329D01*
X23458870Y71179525D01*
X28405000Y71179525D01*
X28405000Y70660475D01*
X28506261Y70151399D01*
X28704893Y69671859D01*
X28993262Y69240285D01*
X29360285Y68873262D01*
X29791859Y68584893D01*
X30271399Y68386261D01*
X30780475Y68285000D01*
X31299525Y68285000D01*
X31808601Y68386261D01*
X32288141Y68584893D01*
X32719715Y68873262D01*
X33086738Y69240285D01*
X33375107Y69671859D01*
X33573739Y70151399D01*
X33675000Y70660475D01*
X33675000Y71179525D01*
X33573739Y71688601D01*
X33375107Y72168141D01*
X33086738Y72599715D01*
X32719715Y72966738D01*
X32288141Y73255107D01*
X31808601Y73453739D01*
X31299525Y73555000D01*
X30780475Y73555000D01*
X30271399Y73453739D01*
X29791859Y73255107D01*
X29360285Y72966738D01*
X28993262Y72599715D01*
X28704893Y72168141D01*
X28506261Y71688601D01*
X28405000Y71179525D01*
X23458870Y71179525D01*
X23508097Y71347298D01*
X22695000Y72160395D01*
X21881903Y71347298D01*
X20961694Y71347298D01*
X21039637Y71425241D01*
X21196680Y71660273D01*
X21304853Y71921426D01*
X21310513Y71949882D01*
X21391397Y71723708D01*
X21458329Y71598486D01*
X21702298Y71526903D01*
X22515395Y72340000D01*
X22874605Y72340000D01*
X23687702Y71526903D01*
X23931671Y71598486D01*
X24052571Y71853996D01*
X24121300Y72128184D01*
X24135217Y72410512D01*
X24093787Y72690130D01*
X23998603Y72956292D01*
X23931671Y73081514D01*
X23687702Y73153097D01*
X22874605Y72340000D01*
X22515395Y72340000D01*
X21702298Y73153097D01*
X21458329Y73081514D01*
X21337429Y72826004D01*
X21311788Y72723711D01*
X21304853Y72758574D01*
X21196680Y73019727D01*
X21039637Y73254759D01*
X20961694Y73332702D01*
X21881903Y73332702D01*
X22695000Y72519605D01*
X23508097Y73332702D01*
X23436514Y73576671D01*
X23181004Y73697571D01*
X22906816Y73766300D01*
X22624488Y73780217D01*
X22344870Y73738787D01*
X22078708Y73643603D01*
X21953486Y73576671D01*
X21881903Y73332702D01*
X20961694Y73332702D01*
X20839759Y73454637D01*
X20604727Y73611680D01*
X20343574Y73719853D01*
X20066335Y73775000D01*
X19783665Y73775000D01*
X19506426Y73719853D01*
X19245273Y73611680D01*
X19010241Y73454637D01*
X18810363Y73254759D01*
X18653320Y73019727D01*
X18545147Y72758574D01*
X18540000Y72732699D01*
X18534853Y72758574D01*
X18426680Y73019727D01*
X18269637Y73254759D01*
X18069759Y73454637D01*
X17834727Y73611680D01*
X17573574Y73719853D01*
X17296335Y73775000D01*
X17013665Y73775000D01*
X16736426Y73719853D01*
X16475273Y73611680D01*
X16240241Y73454637D01*
X16040363Y73254759D01*
X15883320Y73019727D01*
X15775147Y72758574D01*
X15770000Y72732699D01*
X15764853Y72758574D01*
X15656680Y73019727D01*
X15499637Y73254759D01*
X15299759Y73454637D01*
X15064727Y73611680D01*
X14803574Y73719853D01*
X14526335Y73775000D01*
X14243665Y73775000D01*
X13966426Y73719853D01*
X13705273Y73611680D01*
X13470241Y73454637D01*
X13270363Y73254759D01*
X13113320Y73019727D01*
X13005147Y72758574D01*
X12950000Y72481335D01*
X12950000Y72198665D01*
X13005147Y71921426D01*
X13113320Y71660273D01*
X13270363Y71425241D01*
X13470241Y71225363D01*
X13650001Y71105252D01*
X13650001Y70938072D01*
X12200000Y70938072D01*
X12075518Y70925812D01*
X11955820Y70889502D01*
X11845506Y70830537D01*
X11748815Y70751185D01*
X11669463Y70654494D01*
X11610498Y70544180D01*
X11574188Y70424482D01*
X11561928Y70300000D01*
X11561928Y68700000D01*
X11574188Y68575518D01*
X11610498Y68455820D01*
X11669463Y68345506D01*
X11748815Y68248815D01*
X11845506Y68169463D01*
X11955820Y68110498D01*
X12075518Y68074188D01*
X12200000Y68061928D01*
X12265000Y68061928D01*
X12265001Y64396415D01*
X12261444Y64360300D01*
X12275635Y64216215D01*
X12317664Y64077667D01*
X12385914Y63949980D01*
X12477763Y63838062D01*
X12505808Y63815046D01*
X15275729Y61045125D01*
X15145363Y60914759D01*
X14990000Y60682241D01*
X14834637Y60914759D01*
X14634759Y61114637D01*
X14399727Y61271680D01*
X14138574Y61379853D01*
X13861335Y61435000D01*
X13578665Y61435000D01*
X13301426Y61379853D01*
X13040273Y61271680D01*
X12805241Y61114637D01*
X12605363Y60914759D01*
X12450000Y60682241D01*
X12294637Y60914759D01*
X12094759Y61114637D01*
X11859727Y61271680D01*
X11598574Y61379853D01*
X11321335Y61435000D01*
X11038665Y61435000D01*
X10761426Y61379853D01*
X10500273Y61271680D01*
X10265241Y61114637D01*
X10065363Y60914759D01*
X9910000Y60682241D01*
X9754637Y60914759D01*
X9554759Y61114637D01*
X9319727Y61271680D01*
X9058574Y61379853D01*
X8781335Y61435000D01*
X8498665Y61435000D01*
X8221426Y61379853D01*
X7960273Y61271680D01*
X7725241Y61114637D01*
X7525363Y60914759D01*
X7370000Y60682241D01*
X7214637Y60914759D01*
X7014759Y61114637D01*
X6779727Y61271680D01*
X6518574Y61379853D01*
X6241335Y61435000D01*
X5958665Y61435000D01*
X5681426Y61379853D01*
X5420273Y61271680D01*
X5185241Y61114637D01*
X4985363Y60914759D01*
X4830000Y60682241D01*
X4674637Y60914759D01*
X4474759Y61114637D01*
X4239727Y61271680D01*
X3978574Y61379853D01*
X3701335Y61435000D01*
X3418665Y61435000D01*
X3141426Y61379853D01*
X2880273Y61271680D01*
X2645241Y61114637D01*
X2445363Y60914759D01*
X2288320Y60679727D01*
X2180147Y60418574D01*
X2125000Y60141335D01*
X660000Y60141335D01*
X660000Y71179525D01*
X3405000Y71179525D01*
X3405000Y70660475D01*
X3506261Y70151399D01*
X3704893Y69671859D01*
X3993262Y69240285D01*
X4360285Y68873262D01*
X4791859Y68584893D01*
X5271399Y68386261D01*
X5780475Y68285000D01*
X6299525Y68285000D01*
X6808601Y68386261D01*
X7288141Y68584893D01*
X7719715Y68873262D01*
X8086738Y69240285D01*
X8375107Y69671859D01*
X8573739Y70151399D01*
X8675000Y70660475D01*
X8675000Y71179525D01*
X8573739Y71688601D01*
X8375107Y72168141D01*
X8086738Y72599715D01*
X7719715Y72966738D01*
X7288141Y73255107D01*
X6808601Y73453739D01*
X6299525Y73555000D01*
X5780475Y73555000D01*
X5271399Y73453739D01*
X4791859Y73255107D01*
X4360285Y72966738D01*
X3993262Y72599715D01*
X3704893Y72168141D01*
X3506261Y71688601D01*
X3405000Y71179525D01*
X660000Y71179525D01*
X660000Y79340000D01*
X36840001Y79340000D01*
X36840000Y660000D01*
G37*
G04 #@! TD.AperFunction*
M02*
