M48
; DRILL file {KiCad (5.1.9)-1} date 11/21/24 13:27:53
; FORMAT={-:-/ absolute / metric / decimal}
; #@! TF.CreationDate,2024-11-21T13:27:53+09:00
; #@! TF.GenerationSoftware,Kicad,Pcbnew,(5.1.9)-1
FMAT,2
METRIC
T1C0.800
T2C1.000
T3C3.200
%
G90
G05
T1
X3.56Y60.0
X3.56Y44.76
X6.1Y60.0
X6.1Y44.76
X8.64Y60.0
X8.64Y44.76
X9.91Y47.3
X11.18Y60.0
X11.18Y44.76
X12.45Y47.3
X13.72Y60.0
X13.72Y44.76
X16.26Y60.0
X16.26Y44.76
X18.8Y60.0
X18.8Y44.76
X20.07Y47.3
X21.34Y60.0
X21.34Y44.76
X22.61Y47.3
X23.88Y60.0
X23.88Y44.76
X26.42Y60.0
X26.42Y44.76
X28.96Y60.0
X28.96Y44.76
X31.5Y60.0
X31.5Y44.76
T2
X8.43Y30.48
X8.43Y5.08
X8.43Y2.54
X10.97Y30.48
X12.24Y38.1
X13.0Y69.5
X13.51Y30.48
X14.385Y72.34
X14.78Y38.1
X15.77Y69.5
X16.05Y30.48
X17.155Y72.34
X17.32Y38.1
X18.54Y69.5
X18.59Y30.48
X19.86Y38.1
X19.925Y72.34
X21.13Y30.48
X21.31Y69.5
X22.4Y38.1
X22.695Y72.34
X23.67Y30.48
X24.08Y69.5
X24.94Y38.1
X26.21Y30.48
X28.75Y30.48
X28.75Y5.08
X28.75Y2.54
T3
X6.04Y70.92
X31.04Y70.92
T0
M30
